<svg xmlns="http://www.w3.org/2000/svg">
  <defs>
    <symbol id="icon-campervan" viewBox="0 0 100 100">
      <path
        d="M70.327,70.358c-2.441,0-4.427,1.986-4.427,4.427s1.986,4.427,4.427,4.427s4.428-1.986,4.428-4.427  S72.769,70.358,70.327,70.358z M70.327,77.212c-1.338,0-2.427-1.089-2.427-2.427s1.089-2.427,2.427-2.427  c1.339,0,2.428,1.089,2.428,2.427S71.666,77.212,70.327,77.212z" />
      <path
        d="M35.532,74.785c0-2.441-1.986-4.427-4.427-4.427s-4.428,1.986-4.428,4.427s1.986,4.427,4.428,4.427  S35.532,77.227,35.532,74.785z M28.677,74.785c0-1.338,1.089-2.427,2.428-2.427c1.338,0,2.427,1.089,2.427,2.427  s-1.089,2.427-2.427,2.427C29.766,77.212,28.677,76.124,28.677,74.785z" />
      <path
        d="M16.261,75.785h4.528c0.39,4.053,3.126,7.421,6.828,8.75c-5.407,0.758-11.042,1.81-16.868,3.243  c-0.537,0.132-0.864,0.674-0.732,1.21c0.112,0.456,0.521,0.762,0.97,0.761c0.079,0,0.16-0.009,0.24-0.029  c43.886-10.796,77.117-0.13,77.448-0.021c0.523,0.172,1.089-0.111,1.263-0.636c0.173-0.524-0.111-1.09-0.635-1.263  c-0.137-0.045-5.798-1.866-15.458-3.276c3.686-1.336,6.409-4.697,6.798-8.739h1.949c4.036,0,7.319-3.283,7.319-7.319V27.826  c0-4.036-3.283-7.319-7.319-7.319h-2.835v-3.011c0-2.04-1.588-3.704-3.556-3.747L48.479,9.759c-0.047-0.007-0.095-0.01-0.143-0.01  c-2.003,0-3.633,1.681-3.633,3.748v7.011H28.554c-1.681,0-3.316,0.567-4.604,1.598C11.415,32.137,7.16,48.809,11.304,71.657  C11.738,74.049,13.823,75.785,16.261,75.785z M13.272,71.3c-1.22-6.725-1.685-12.881-1.419-18.471h25.701v13.855  c-1.772-1.414-4.011-2.265-6.449-2.265c-5.378,0-9.81,4.118-10.315,9.366h-4.528C14.791,73.785,13.534,72.74,13.272,71.3z   M17.48,32.498h13.048c0.554,0,1.004,0.451,1.004,1.004v17.327H11.995C12.575,43.738,14.399,37.614,17.48,32.498z M55.613,73.785  H41.42c-0.178-1.848-0.847-3.551-1.869-4.988c0-0.006,0.003-0.011,0.003-0.017V34.598c0-1.158,0.942-2.1,2.1-2.1h11.858  c1.158,0,2.1,0.942,2.1,2.1V73.785z M22.739,74.785c0-4.613,3.753-8.366,8.366-8.366c4.613,0,8.366,3.753,8.366,8.366  c0,4.613-3.753,8.366-8.366,8.366C26.492,83.151,22.739,79.398,22.739,74.785z M36.67,83.516c2.616-1.674,4.437-4.482,4.75-7.731  h18.592c0.31,3.224,2.105,6.015,4.688,7.694C56.802,82.809,47.308,82.607,36.67,83.516z M70.327,83.151  c-4.613,0-8.366-3.753-8.366-8.366c0-4.613,3.753-8.366,8.366-8.366c4.613,0,8.366,3.753,8.366,8.366  C78.693,79.398,74.94,83.151,70.327,83.151z M82.592,73.785h-1.949c-0.505-5.248-4.937-9.366-10.315-9.366s-9.81,4.118-10.315,9.366  h-2.399V52.829h30.298v15.637C87.911,71.399,85.525,73.785,82.592,73.785z M46.703,13.496c0-0.941,0.699-1.711,1.57-1.746  l27.707,3.988c0.047,0.007,0.095,0.01,0.143,0.01c0.9,0,1.633,0.784,1.633,1.748v3.011H46.703V13.496z M25.2,23.667  c0.934-0.748,2.125-1.16,3.354-1.16h54.038c2.933,0,5.319,2.386,5.319,5.319v23.003H57.613V34.598c0-2.261-1.839-4.1-4.1-4.1H41.654  c-2.261,0-4.1,1.839-4.1,4.1v16.231h-4.022V33.502c0-1.657-1.348-3.004-3.004-3.004H18.794C20.591,27.947,22.713,25.657,25.2,23.667  z" />
      <path
        d="M65.366,45.444h15.042c2.256,0,4.092-1.836,4.092-4.092V34.59c0-2.256-1.836-4.092-4.092-4.092H65.366  c-2.256,0-4.092,1.836-4.092,4.092v6.762C61.274,43.608,63.11,45.444,65.366,45.444z M82.5,34.59v6.762  c0,1.154-0.938,2.092-2.092,2.092h-10.69V32.498h10.69C81.562,32.498,82.5,33.437,82.5,34.59z M63.274,34.59  c0-1.154,0.938-2.092,2.092-2.092h2.352v10.946h-2.352c-1.154,0-2.092-0.938-2.092-2.092V34.59z" />
      <path
        d="M72.837,40.498c0.552,0,1-0.448,1-1v-3.053c0-0.552-0.448-1-1-1s-1,0.448-1,1v3.053  C71.837,40.05,72.285,40.498,72.837,40.498z" />
      <path
        d="M42.947,55.438c-0.552,0-1,0.448-1,1v3.115c0,0.552,0.448,1,1,1s1-0.448,1-1v-3.115  C43.947,55.886,43.499,55.438,42.947,55.438z" />
      <path
        d="M32.532,60.553c0.552,0,1-0.448,1-1v-3.115c0-0.552-0.448-1-1-1s-1,0.448-1,1v3.115  C31.532,60.105,31.98,60.553,32.532,60.553z" />
    </symbol>
    <symbol id="icon-campfire" viewBox="0 0 100 100">
      <path
        d="M59.144043,65.1196289c0-5.434082-8.296875-13.5722656-8.6499023-13.9165039  c-0.3823242-0.3706055-0.9858398-0.378418-1.3764648-0.0175781c-0.3540039,0.3276367-8.6689453,8.0825195-8.6689453,13.934082  c0,5.0073242,4.1933594,9.0810547,9.3476562,9.0810547S59.144043,70.1269531,59.144043,65.1196289z M49.918457,72.0791016  c-1.8364258,0-3.3305664-1.4321289-3.3305664-3.1923828c0-1.7792969,1.9985352-4.4165039,3.3237305-5.9130859  c1.328125,1.5229492,3.3378906,4.1948242,3.3378906,5.9130859C53.2495117,70.6469727,51.7553711,72.0791016,49.918457,72.0791016z   M42.4487305,65.1196289c0-3.7543945,4.7827148-9.2705078,7.331543-11.7978516  c2.5517578,2.6357422,7.3637695,8.3237305,7.3637695,11.7978516c0,1.8820801-0.7710571,3.5906372-2.0183716,4.8602295  c0.078125-0.3530884,0.1238403-0.7175903,0.1238403-1.0931396c0-3.2504883-4.1420898-7.5981445-4.6147461-8.0834961  c-0.1865234-0.1918945-0.4428711-0.3007812-0.7104492-0.3022461c-0.3046875-0.0039062-0.5253906,0.1044922-0.7143555,0.2939453  c-0.4731445,0.4750977-4.6220703,4.7358398-4.6220703,8.0917969c0,0.4976196,0.0951538,0.9694824,0.2299194,1.425415  C43.3651733,69.0176392,42.4487305,67.1720581,42.4487305,65.1196289z" />
      <path
        d="M66.6293945,78.6889648c0.1123047-0.2402344,0.1245117-0.5151367,0.0341797-0.7646484l-1.8378906-5.0649414  c-0.1884766-0.5185547-0.7617188-0.7875977-1.28125-0.5986328l-13.5443115,4.9143066l-13.5445557-4.9143066  c-0.519043-0.1879883-1.0922852,0.0800781-1.28125,0.5986328l-1.8378906,5.0649414  c-0.090332,0.2495117-0.078125,0.5244141,0.0341797,0.7646484s0.3154297,0.4262695,0.5649414,0.5166016l5.234375,1.8989868  l-5.2348633,1.899353c-0.2490234,0.090332-0.4521484,0.2763672-0.5644531,0.5166016s-0.1245117,0.5151367-0.0341797,0.7646484  l1.8378906,5.0649414c0.1474609,0.40625,0.53125,0.6591797,0.9399414,0.6591797  c0.1132812,0,0.2285156-0.0195312,0.3413086-0.0605469l13.5443115-4.9143066l13.5445557,4.9143066  c0.112793,0.0410156,0.2280273,0.0605469,0.3413086,0.0605469c0.4086914,0,0.7924805-0.2529297,0.9399414-0.6591797  l1.8378906-5.0649414c0.090332-0.2495117,0.078125-0.5244141-0.0341797-0.7646484s-0.3154297-0.4262695-0.5644531-0.5166016  l-5.234375-1.8991699l5.234375-1.8991699C66.3139648,79.1152344,66.5170898,78.9291992,66.6293945,78.6889648z   M35.5576172,77.6665039l1.1557617-3.1845703l10.3547974,3.756897l-4.9666748,1.802063L35.5576172,77.6665039z   M64.4423828,84.5429688l-1.1557617,3.1845703l-10.3547974-3.756897l4.9668579-1.802124L64.4423828,84.5429688z   M36.7133789,87.7275391l-1.1557617-3.1845703l27.7290039-10.0610352l1.1557617,3.1845703L36.7133789,87.7275391z" />
      <path
        d="M70.5219727,43.7895508c0.4609375-1.2280273,0.4160156-2.5615234-0.1264648-3.7553711  c-0.5419922-1.1938477-1.5170898-2.1054688-2.7446289-2.565918l-2.996582-1.1245117  c-2.5322266-0.9526367-5.3701172,0.3364258-6.3212891,2.8706055l-0.2111206,0.562439l-2.3225098-0.8716431l0.2108765-0.5618896  c0.4609375-1.2280273,0.4160156-2.5615234-0.1259766-3.7553711c-0.5424805-1.1938477-1.5170898-2.1054688-2.7446289-2.565918  l-2.9970703-1.125c0,0,0,0-0.0004883,0c-2.5307617-0.9511719-5.3696289,0.3369141-6.3208008,2.8710938l-0.2109375,0.5621338  l-2.5063477-0.9405518c-0.5195312-0.1943359-1.09375,0.0678711-1.2875977,0.5844727  c-0.1943359,0.5170898,0.0673828,1.09375,0.5844727,1.2875977l2.506897,0.9407349l-0.2109985,0.5621948  c-0.4609375,1.2280273-0.4160156,2.5615234,0.1259766,3.7553711c0.5424805,1.1943359,1.5170898,2.1054688,2.7446289,2.565918  l2.9975586,1.1254883c0.565918,0.2119141,1.1469727,0.3129883,1.71875,0.3129883  c1.9882812,0,3.8637695-1.2167969,4.6020508-3.1845703l0.2110596-0.562439l2.3223267,0.871582l-0.2111206,0.562439  c-0.4609375,1.2275391-0.4160156,2.5610352,0.1264648,3.7553711c0.5419922,1.1938477,1.5170898,2.1054688,2.7446289,2.565918  l2.996582,1.1245117c0.5620117,0.2109375,1.1455078,0.315918,1.7280273,0.315918  c0.6904297,0,1.3798828-0.1479492,2.0273438-0.4418945c1.1938477-0.5424805,2.1054688-1.5170898,2.565918-2.7446289  l0.2112427-0.5627441l19.0402222,7.1462402C88.7641602,53.4135742,88.8833008,53.4345703,89,53.4345703  c0.4047852,0,0.7856445-0.2475586,0.9360352-0.6489258c0.1943359-0.5170898-0.0673828-1.09375-0.5844727-1.2875977  l-19.0405884-7.1463623L70.5219727,43.7895508z M53.0136719,40.6367188  c-0.5639648,1.5024414-2.2421875,2.2641602-3.7460938,1.7021484l-2.9975586-1.1254883  c-0.7275391-0.2724609-1.3046875-0.8125-1.6264648-1.5200195c-0.3212891-0.7075195-0.3476562-1.4980469-0.074707-2.2255859  l0.5620728-1.4977417c0.0001221-0.0003052,0.0003052-0.0004883,0.0004272-0.0007935  c0.000061-0.0002441,0.000061-0.0004883,0.0001221-0.0007324l0.5618896-1.4973145  c0.4379883-1.1665039,1.5493164-1.8876953,2.7275391-1.8876953c0.3388672,0,0.6831055,0.0600586,1.019043,0.1855469l2.996582,1.125  c1.5019531,0.5639648,2.2651367,2.2446289,1.7016602,3.7460938l-0.2110596,0.5623779l-1.836792-0.6893311  c-0.5175781-0.1938477-1.09375,0.0678711-1.2875977,0.5844727c-0.1943359,0.5170898,0.0673828,1.09375,0.5844727,1.2875977  l1.8373413,0.6895142L53.0136719,40.6367188z M67.5249023,46.0834961c-0.5634766,1.5019531-2.2431641,2.2670898-3.7460938,1.7016602  l-2.996582-1.1245117c-0.7280273-0.2734375-1.3056641-0.8134766-1.6269531-1.5209961s-0.3481445-1.4980469-0.0751953-2.2250977  l1.125-2.9970703c0.4379883-1.1665039,1.5488281-1.887207,2.7270508-1.887207c0.3388672,0,0.6835938,0.0595703,1.019043,0.1855469  l2.996582,1.1245117c1.5024414,0.5639648,2.265625,2.2446289,1.7021484,3.7460938l-0.2111816,0.562561l-1.6862793-0.6328735  c-0.5170898-0.1938477-1.09375,0.0673828-1.2875977,0.5844727c-0.1943359,0.5170898,0.0673828,1.09375,0.5844727,1.2875977  l1.6866455,0.6330566L67.5249023,46.0834961z" />
      <path
        d="M10.9995117,30.4990234c0.0917969,0,0.1850586-0.0131836,0.277832-0.0395508l22.5601196-6.5117188l0.1664429,0.5766602  c0.6206055,2.1479492,2.5878906,3.5483398,4.7192383,3.5483398c0.449707,0,0.9067383-0.0625,1.359375-0.1928711l3.0751953-0.8876953  c1.2597656-0.3637695,2.3027344-1.1962891,2.9365234-2.3442383s0.7822266-2.4741211,0.4189453-3.7338867l-0.1664429-0.5765991  l2.3828735-0.6878662l0.1663818,0.5764771c0.6201172,2.1479492,2.5874023,3.5483398,4.7192383,3.5483398  c0.4492188,0,0.90625-0.0625,1.359375-0.1928711l3.0751953-0.8876953c2.6005859-0.7509766,4.105957-3.4775391,3.3554688-6.078125  l-0.1665649-0.5770874l2.5718384-0.7422485c0.5307617-0.1533203,0.8364258-0.7075195,0.6835938-1.2382812  c-0.1533203-0.53125-0.7080078-0.8354492-1.2382812-0.6835938l-2.5718384,0.7422485l-0.1664429-0.5767212  c-0.7504883-2.6005859-3.4736328-4.1035156-6.0786133-3.3554688l-3.0751953,0.8876953  c-2.6005859,0.7504883-4.105957,3.4775391-3.3554688,6.0786133l0.1665039,0.5768433l-2.3828125,0.6878662l-0.1665039-0.5767212  c-0.3637695-1.2597656-1.1962891-2.3027344-2.3442383-2.9365234c-1.1484375-0.6337891-2.4731445-0.7822266-3.7338867-0.4189453  l-3.0756836,0.8876953c-2.6005859,0.7509766-4.105957,3.4770508-3.3554688,6.078125l0.1664429,0.5766602l-22.5599976,6.5117188  c-0.5307617,0.1533203-0.8364258,0.7075195-0.6835938,1.2382812C10.1655273,30.2138672,10.5654297,30.4990234,10.9995117,30.4990234  z M49.9301758,16.5961914c-0.4448242-1.5415039,0.4472656-3.1572266,1.9882812-3.6020508l3.0751953-0.8876953  c0.2685547-0.0776367,0.5390625-0.1147461,0.8056641-0.1147461c1.2631836,0,2.4291992,0.8300781,2.7963867,2.1030273  l0.8876953,3.0756836c0.2158203,0.746582,0.1274414,1.5322266-0.2480469,2.2124023  c-0.3754883,0.6806641-0.9936523,1.1738281-1.7402344,1.3891602l-3.0751953,0.8876953  c-1.5419922,0.4453125-3.1577148-0.4467773-3.6020508-1.9882812l-0.1664429-0.5765381l1.8847046-0.5440674  c0.5307617-0.1533203,0.8364258-0.7075195,0.6835938-1.2382812c-0.1538086-0.5307617-0.7094727-0.8364258-1.2382812-0.6835938  l-1.8847656,0.5440674L49.9301758,16.5961914z M35.0380859,20.8945312c-0.2158203-0.746582-0.1274414-1.5322266,0.2480469-2.2124023  c0.3754883-0.6806641,0.9936523-1.1738281,1.7402344-1.3891602l3.0756836-0.8876953  c0.2675781-0.0776367,0.5405273-0.1157227,0.8115234-0.1157227c0.4848633,0,0.9648438,0.1225586,1.4008789,0.3632812  c0.6806641,0.3759766,1.1738281,0.9936523,1.3891602,1.7407227l0.8876953,3.0751953  c0.2158203,0.746582,0.1274414,1.5322266-0.2480469,2.2124023c-0.3754883,0.6806641-0.9936523,1.1738281-1.7402344,1.3891602  l-3.0751953,0.8876953c-1.5419922,0.4448242-3.1572266-0.4467773-3.6020508-1.9882812l-0.1664429-0.5767212l1.7304077-0.4994507  c0.5307617-0.1533203,0.8364258-0.7075195,0.6835938-1.2382812c-0.1533203-0.53125-0.7094727-0.8354492-1.2382812-0.6835938  l-1.7305298,0.4995117L35.0380859,20.8945312z" />
      <path
        d="M63.6704102,22.0908203c0,0.5522461,0.4477539,1,1,1c0.878418,0,1.5932617,0.7143555,1.5932617,1.5927734  s-0.7148438,1.5932617-1.5932617,1.5932617c-1.9814453,0-3.5932617,1.6118164-3.5932617,3.5932617  s1.6118164,3.5932617,3.5932617,3.5932617c0.5522461,0,1-0.4477539,1-1s-0.4477539-1-1-1  c-0.878418,0-1.5932617-0.7148438-1.5932617-1.5932617s0.7148438-1.5932617,1.5932617-1.5932617  c1.9814453,0,3.5932617-1.6118164,3.5932617-3.5932617c0-1.980957-1.6118164-3.5927734-3.5932617-3.5927734  C64.1181641,21.0908203,63.6704102,21.5385742,63.6704102,22.0908203z" />
      <path
        d="M72.7084961,33.4633789c0.5522461,0,1-0.4477539,1-1s-0.4477539-1-1-1c-0.878418,0-1.5932617-0.7148438-1.5932617-1.5932617  s0.7148438-1.5932617,1.5932617-1.5932617c1.9814453,0,3.5932617-1.6118164,3.5932617-3.5932617  c0-1.980957-1.6118164-3.5927734-3.5932617-3.5927734c-0.5522461,0-1,0.4477539-1,1s0.4477539,1,1,1  c0.878418,0,1.5932617,0.7143555,1.5932617,1.5927734s-0.7148438,1.5932617-1.5932617,1.5932617  c-1.9814453,0-3.5932617,1.6118164-3.5932617,3.5932617S70.7270508,33.4633789,72.7084961,33.4633789z" />
    </symbol>
    <symbol id="icon-path" viewBox="0 0 100 100">
      <style type="text/css">
        .st0{fill:none;stroke:#000000;stroke-width:2;stroke-linecap:round;stroke-linejoin:round;stroke-miterlimit:10;}
        .st1{fill:none;stroke:#000000;stroke-width:2;stroke-linecap:round;stroke-linejoin:round;}
        .st2{fill:none;stroke:#000000;stroke-width:2;stroke-linecap:round;stroke-linejoin:round;stroke-dasharray:2.9177,3.8902;}
        .st3{fill:none;stroke:#000000;stroke-width:2;stroke-linecap:round;stroke-linejoin:round;stroke-dasharray:2.9655,3.954;}
        .st4{fill:none;stroke:#000000;stroke-width:2;stroke-linecap:round;stroke-linejoin:round;stroke-dasharray:2.7633,3.6844;}
      </style>
      <path
        d="M33.5,62.8c0.9-0.4,1.8-0.8,2.7-1.2c0.5-0.2,1.1,0,1.3,0.5s0,1.1-0.5,1.3c-0.9,0.4-1.8,0.8-2.7,1.1  c-0.1,0.1-0.3,0.1-0.4,0.1c-0.4,0-0.7-0.2-0.9-0.6C32.8,63.7,33,63.1,33.5,62.8z" />
      <path
        d="M39.9,60.2c0.9-0.4,1.8-0.7,2.7-1.1c0.5-0.2,1.1,0.1,1.3,0.6c0.2,0.5-0.1,1.1-0.6,1.3c-0.9,0.4-1.8,0.7-2.7,1.1  c-0.1,0-0.2,0.1-0.4,0.1c-0.4,0-0.8-0.2-0.9-0.6C39.1,61,39.4,60.4,39.9,60.2z" />
      <path
        d="M27.3,65.9c0.9-0.5,1.7-0.9,2.6-1.4c0.5-0.2,1.1,0,1.3,0.5c0.2,0.5,0,1.1-0.5,1.3c-0.9,0.4-1.7,0.9-2.6,1.3  c-0.2,0.1-0.3,0.1-0.5,0.1c-0.4,0-0.7-0.2-0.9-0.5C26.7,66.7,26.9,66.1,27.3,65.9z" />
      <path
        d="M46.2,57.7c0.9-0.3,1.8-0.7,2.7-1.1c0.5-0.2,1.1,0.1,1.3,0.6c0.2,0.5-0.1,1.1-0.6,1.3c-0.9,0.4-1.8,0.7-2.7,1.1  c-0.1,0-0.2,0.1-0.4,0.1c-0.4,0-0.8-0.2-0.9-0.6C45.5,58.5,45.7,57.9,46.2,57.7z" />
      <path
        d="M23.9,67.9c0.5-0.3,1.1-0.2,1.4,0.3c0.3,0.5,0.2,1.1-0.3,1.4c-0.8,0.5-1.6,1.1-2.3,1.6c-0.2,0.1-0.4,0.2-0.6,0.2  c-0.3,0-0.6-0.1-0.8-0.4c-0.3-0.4-0.2-1.1,0.2-1.4C22.2,69,23.1,68.4,23.9,67.9z" />
      <path
        d="M18.4,72.1c0.4-0.4,1-0.4,1.4,0c0.4,0.4,0.4,1,0,1.4c-0.7,0.7-1.3,1.4-1.9,2c-0.2,0.2-0.5,0.4-0.8,0.4  c-0.2,0-0.4-0.1-0.6-0.2c-0.4-0.4-0.5-1-0.1-1.4C17,73.6,17.7,72.9,18.4,72.1z" />
      <path
        d="M13.8,78.3c0.1-0.2,0.2-0.4,0.3-0.6c0.3-0.5,0.9-0.7,1.4-0.4c0.5,0.3,0.7,0.9,0.4,1.4c-0.1,0.2-0.2,0.3-0.3,0.5  c-0.2,0.3-0.5,0.5-0.9,0.5c-0.2,0-0.3,0-0.5-0.1C13.7,79.4,13.5,78.8,13.8,78.3z" />
      <path
        d="M52.6,55.3c0.9-0.4,1.8-0.7,2.7-1.1c0.5-0.2,1.1,0,1.3,0.5c0.2,0.5,0,1.1-0.5,1.3c-0.9,0.4-1.8,0.8-2.7,1.1  c-0.1,0-0.2,0.1-0.4,0.1c-0.4,0-0.8-0.2-0.9-0.6C51.8,56,52,55.5,52.6,55.3z" />
      <path
        d="M84.4,21c0.1-0.5,0.6-0.9,1.1-0.8c0.5,0.1,0.9,0.6,0.8,1.1c-0.1,1-0.3,2-0.5,2.9c-0.1,0.5-0.5,0.8-1,0.8c-0.1,0-0.1,0-0.2,0  c-0.5-0.1-0.9-0.6-0.8-1.2C84.1,22.9,84.2,22,84.4,21z" />
      <path
        d="M76,43.2c-0.2,0-0.5-0.1-0.7-0.3c-0.4-0.4-0.4-1-0.1-1.4c0.6-0.7,1.2-1.4,1.8-2.2c0.3-0.4,1-0.5,1.4-0.2  c0.4,0.3,0.5,1,0.2,1.4c-0.6,0.8-1.2,1.6-1.9,2.3C76.6,43.1,76.3,43.2,76,43.2z" />
      <path
        d="M72,44.7c0.2-0.2,0.4-0.4,0.6-0.5c0.4-0.4,1-0.3,1.4,0.1c0.4,0.4,0.3,1-0.1,1.4c-0.2,0.2-0.4,0.4-0.6,0.6  c-0.5,0.5-1.1,0.9-1.7,1.3c-0.2,0.1-0.4,0.2-0.6,0.2c-0.3,0-0.6-0.1-0.8-0.4c-0.3-0.4-0.2-1.1,0.2-1.4C70.9,45.5,71.5,45.1,72,44.7z  " />
      <path
        d="M85.9,13.4c0.6,0,1,0.5,1,1c0,1-0.1,2-0.1,3c0,0.5-0.5,0.9-1,0.9c0,0,0,0-0.1,0c-0.6,0-1-0.5-0.9-1.1  c0.1-0.9,0.1-1.9,0.1-2.9C84.9,13.8,85.4,13.4,85.9,13.4z" />
      <path
        d="M64.8,49.6c0.9-0.5,1.7-1,2.5-1.5c0.5-0.3,1.1-0.2,1.4,0.3c0.3,0.5,0.2,1.1-0.3,1.4c-0.8,0.5-1.7,1-2.6,1.5  c-0.2,0.1-0.3,0.1-0.5,0.1c-0.4,0-0.7-0.2-0.9-0.5C64.1,50.4,64.3,49.8,64.8,49.6z" />
      <path
        d="M82.3,34.6c-0.4,0.9-0.9,1.8-1.4,2.6c-0.2,0.3-0.5,0.5-0.9,0.5c-0.2,0-0.4,0-0.5-0.1c-0.5-0.3-0.6-0.9-0.3-1.4  c0.5-0.8,0.9-1.6,1.4-2.5c0.2-0.5,0.8-0.7,1.3-0.5C82.4,33.5,82.6,34.1,82.3,34.6z" />
      <path
        d="M83,27.5c0.2-0.5,0.7-0.8,1.2-0.7c0.5,0.2,0.8,0.7,0.7,1.2c-0.3,1-0.6,1.9-0.9,2.8c-0.2,0.4-0.5,0.6-0.9,0.6  c-0.1,0-0.2,0-0.4-0.1c-0.5-0.2-0.8-0.8-0.6-1.3C82.4,29.3,82.7,28.4,83,27.5z" />
      <path
        d="M58.8,52.6c0.9-0.4,1.8-0.8,2.6-1.2c0.5-0.2,1.1,0,1.3,0.5c0.2,0.5,0,1.1-0.5,1.3c-0.9,0.4-1.8,0.9-2.7,1.3  c-0.1,0.1-0.3,0.1-0.4,0.1c-0.4,0-0.7-0.2-0.9-0.6C58.1,53.4,58.3,52.8,58.8,52.6z" />
      <path
        d="M13.4,81.9c0.5,0.1,0.9,0.7,0.7,1.2c-0.2,1-0.4,2.1-0.5,3.2c0,0.5-0.5,0.9-1,0.9c0,0,0,0-0.1,0c-0.6,0-1-0.5-0.9-1.1  c0.1-1.2,0.3-2.4,0.5-3.5C12.3,82.1,12.8,81.7,13.4,81.9z" />
      <path
        d="M24,40.4V30.1l-5.2,5.2c-0.2,0.2-0.5,0.3-0.7,0.3c-0.3,0-0.5-0.1-0.7-0.3c-0.4-0.4-0.4-1,0-1.4l6.6-6.6v-3l-5.2,5.2  c-0.4,0.4-1,0.4-1.4,0c-0.4-0.4-0.4-1,0-1.4l6.6-6.6v-3l-5.2,5.2c-0.4,0.4-1,0.4-1.4,0c-0.4-0.4-0.4-1,0-1.4l6.9-6.9l0,0  c0.2-0.2,0.4-0.3,0.7-0.3s0.5,0.1,0.7,0.3l0,0l6.9,6.9c0.4,0.4,0.4,1,0,1.4C32.4,24,32.2,24,31.9,24c-0.3,0-0.5-0.1-0.7-0.3L26,18.5  v3l6.6,6.6c0.4,0.4,0.4,1,0,1.4c-0.2,0.2-0.5,0.3-0.7,0.3c-0.3,0-0.5-0.1-0.7-0.3L26,24.3v3l6.6,6.6c0.4,0.4,0.4,1,0,1.4  c-0.4,0.4-1,0.4-1.4,0L26,30.1v10.2c0,0.6-0.4,1-1,1S24,40.9,24,40.4z" />
      <path
        d="M56.1,28.1c0.4,0.4,0.4,1,0,1.4c-0.4,0.4-1,0.4-1.4,0l-5.2-5.2v3l6.6,6.6c0.4,0.4,0.4,1,0,1.4c-0.2,0.2-0.5,0.3-0.7,0.3  c-0.3,0-0.5-0.1-0.7-0.3l-5.2-5.2v10.2c0,0.6-0.4,1-1,1s-1-0.4-1-1V30.1l-5.2,5.2c-0.4,0.4-1,0.4-1.4,0c-0.4-0.4-0.4-1,0-1.4  l6.6-6.6v-3l-5.2,5.2c-0.2,0.2-0.5,0.3-0.7,0.3c-0.3,0-0.5-0.1-0.7-0.3c-0.4-0.4-0.4-1,0-1.4l6.6-6.6v-3l-5.2,5.2  C42.1,24,41.9,24,41.6,24c-0.3,0-0.5-0.1-0.7-0.3c-0.4-0.4-0.4-1,0-1.4l6.9-6.9c0,0,0,0,0,0c0.2-0.2,0.4-0.3,0.7-0.3  s0.5,0.1,0.7,0.3l0,0l6.9,6.9c0.4,0.4,0.4,1,0,1.4c-0.4,0.4-1,0.4-1.4,0l-5.2-5.2v3L56.1,28.1z" />
      <path
        d="M72.9,68.8c-0.4,0.4-1,0.4-1.4,0c-0.4-0.4-0.4-1,0-1.4l6.9-6.9l0,0c0.2-0.2,0.4-0.3,0.7-0.3s0.5,0.1,0.7,0.3l0,0l6.9,6.9  c0.4,0.4,0.4,1,0,1.4c-0.2,0.2-0.5,0.3-0.7,0.3c-0.3,0-0.5-0.1-0.7-0.3l-5.2-5.2v3l6.6,6.6c0.4,0.4,0.4,1,0,1.4  c-0.2,0.2-0.5,0.3-0.7,0.3c-0.3,0-0.5-0.1-0.7-0.3l-5.2-5.2v3l6.6,6.6c0.4,0.4,0.4,1,0,1.4c-0.2,0.2-0.5,0.3-0.7,0.3  c-0.3,0-0.5-0.1-0.7-0.3l-5.2-5.2v10.2c0,0.6-0.4,1-1,1s-1-0.4-1-1V75.2l-5.2,5.2c-0.4,0.4-1,0.4-1.4,0c-0.4-0.4-0.4-1,0-1.4  l6.6-6.6v-3l-5.2,5.2c-0.4,0.4-1,0.4-1.4,0c-0.4-0.4-0.4-1,0-1.4l6.6-6.6v-3L72.9,68.8z" />
    </symbol>
    <symbol id="icon-bike" viewBox="0 0 64 64">
      <g>
        <g>
          <path
            d="M52,29c-1.833,0-3.564,0.425-5.119,1.163l-4.557-7.871l2.168-4.928l1.06,0.53C45.691,17.964,45.845,18,46,18h2    c1.654,0,3-1.346,3-3v-1c0-1.654-1.346-3-3-3h-5c-2.757,0-5,2.243-5,5c0,0.552,0.448,1,1,1h3.467l-1.76,4H20.263l0.662-1.838    c0.378-1.051,0.274-2.11-0.286-2.907C20.079,15.457,19.117,15,18,15h-6c-2.206,0-4,1.794-4,4s1.794,4,4,4h2c0.552,0,1-0.448,1-1    s-0.448-1-1-1h-2c-1.103,0-2-0.897-2-2s0.897-2,2-2h6c0.463,0,0.819,0.144,1.002,0.404c0.183,0.261,0.197,0.644,0.041,1.08    l-3.938,10.938C14.113,29.155,13.075,29,12,29C5.383,29,0,34.383,0,41s5.383,12,12,12s12-5.383,12-12    c0-4.836-2.882-9.002-7.013-10.901l1.227-3.408l10.713,11.428C28.348,38.935,28,39.925,28,41c0,2.757,2.243,5,5,5    c2.415,0,4.434-1.721,4.899-4h2.152c0.511,6.149,5.67,11,11.949,11c6.617,0,12-5.383,12-12S58.617,29,52,29z M22,41    c0,5.514-4.486,10-10,10C6.486,51,2,46.514,2,41s4.486-10,10-10c0.838,0,1.647,0.115,2.426,0.31l-3.367,9.351    c-0.187,0.52,0.082,1.093,0.602,1.28C11.773,41.981,11.888,42,12,42c0.41,0,0.794-0.254,0.941-0.662l3.366-9.35    C19.668,33.602,22,37.029,22,41z M45.149,31.162c-2.85,1.991-4.794,5.183-5.098,8.838h-2.152    c-0.258-1.264-0.999-2.349-2.015-3.071l5.442-12.37L45.149,31.162z M52,38c1.654,0,3,1.346,3,3s-1.346,3-3,3c-1.654,0-3-1.346-3-3    S50.346,38,52,38z M47.101,40h-5.05c0.291-2.919,1.848-5.464,4.106-7.098l2.535,4.378C47.9,37.985,47.321,38.923,47.101,40z     M43,13h5c0.551,0,1,0.449,1,1v1c0,0.551-0.449,1-1,1h-1.764l-1.789-0.894C44.309,15.036,44.155,15,44,15h-3.829    C40.584,13.836,41.696,13,43,13z M19.543,23h20.284l-5.771,13.117C33.714,36.043,33.363,36,33,36    c-0.959,0-1.848,0.285-2.609,0.755L18.975,24.578L19.543,23z M33,44c-1.654,0-3-1.346-3-3s1.346-3,3-3c1.654,0,3,1.346,3,3    S34.654,44,33,44z M52,51c-5.177,0-9.446-3.954-9.949-9h5.05c0.465,2.279,2.484,4,4.899,4c2.757,0,5-2.243,5-5s-2.243-5-5-5    c-0.554,0-1.078,0.112-1.577,0.279l-2.538-4.383C49.142,31.326,50.532,31,52,31c5.514,0,10,4.486,10,10S57.514,51,52,51z" />
          <circle cx="51.999" cy="41" r="1" />
        </g>
      </g>
    </symbol>
    <symbol id="icon-forest" viewBox="0 0 100 100">
      <path
        d="M11.125,88c-0.552,0-1,0.448-1,1s0.448,1,1,1h78c0.552,0,1-0.448,1-1s-0.448-1-1-1H71.854V40.474l16.543,17.561  c0.379,0.402,1.013,0.42,1.414,0.042c0.402-0.379,0.421-1.012,0.042-1.414L71.854,37.557v-10.56l16.543,17.561  c0.379,0.403,1.013,0.42,1.414,0.042c0.402-0.379,0.421-1.012,0.042-1.414L71.854,24.08V13.52l16.543,17.561  c0.379,0.402,1.013,0.42,1.414,0.042c0.402-0.379,0.421-1.012,0.042-1.414L71.582,10.314c-0.003-0.004-0.008-0.005-0.012-0.008  C71.388,10.119,71.136,10,70.854,10s-0.534,0.119-0.716,0.306c-0.003,0.003-0.008,0.004-0.012,0.008L51.855,29.71  c-0.378,0.402-0.36,1.035,0.042,1.414c0.193,0.182,0.439,0.272,0.686,0.272c0.266,0,0.531-0.105,0.728-0.314L69.854,13.52v10.56  L51.855,43.187c-0.378,0.402-0.36,1.035,0.042,1.414c0.193,0.182,0.439,0.272,0.686,0.272c0.266,0,0.531-0.105,0.728-0.314  l16.542-17.561v10.56L51.855,56.664c-0.378,0.402-0.36,1.035,0.042,1.414c0.193,0.182,0.439,0.272,0.686,0.272  c0.266,0,0.531-0.105,0.728-0.314l16.542-17.561V88H30.396V40.474l16.542,17.561c0.197,0.209,0.462,0.314,0.728,0.314  c0.246,0,0.493-0.09,0.686-0.272c0.402-0.379,0.421-1.012,0.042-1.414L30.396,37.557v-10.56l16.542,17.561  c0.197,0.209,0.462,0.314,0.728,0.314c0.246,0,0.493-0.09,0.686-0.272c0.402-0.379,0.421-1.012,0.042-1.414L30.396,24.08V13.52  l16.542,17.561c0.197,0.209,0.462,0.314,0.728,0.314c0.246,0,0.493-0.09,0.686-0.272c0.402-0.379,0.421-1.012,0.042-1.414  L30.124,10.314c-0.003-0.004-0.009-0.005-0.012-0.009c-0.075-0.078-0.167-0.135-0.264-0.185c-0.021-0.011-0.037-0.03-0.059-0.04  C29.668,10.029,29.536,10,29.396,10s-0.272,0.029-0.393,0.081c-0.022,0.009-0.038,0.029-0.059,0.04  c-0.097,0.05-0.189,0.107-0.264,0.185c-0.004,0.004-0.009,0.005-0.012,0.009L10.397,29.71c-0.378,0.402-0.36,1.035,0.042,1.414  c0.401,0.377,1.034,0.36,1.414-0.042L28.396,13.52v10.56L10.397,43.187c-0.378,0.402-0.36,1.035,0.042,1.414  c0.401,0.378,1.034,0.36,1.414-0.042l16.543-17.561v10.56L10.397,56.664c-0.378,0.402-0.36,1.035,0.042,1.414  c0.401,0.377,1.034,0.36,1.414-0.042l16.543-17.561V88H11.125z" />
    </symbol>
    <symbol id="forest2" viewBox="0 0 100 100">
      <path
        d="M10.432,35.174c-0.398,0.383-0.411,1.016-0.028,1.414c0.196,0.205,0.458,0.308,0.721,0.308c0.25,0,0.499-0.093,0.693-0.278  l7.188-6.905v22.663h-7.85c-0.552,0-1,0.447-1,1s0.448,1,1,1h77.969c0.552,0,1-0.447,1-1s-0.448-1-1-1h-5.997v-9.503l5.304,5.094  c0.194,0.186,0.443,0.278,0.693,0.278c0.263,0,0.525-0.103,0.721-0.308c0.383-0.398,0.37-1.031-0.028-1.414l-6.69-6.424v-2.592  l5.304,5.094c0.399,0.381,1.031,0.37,1.414-0.029c0.383-0.398,0.37-1.031-0.028-1.414l-6.69-6.424v-2.593l5.304,5.095  c0.194,0.186,0.443,0.278,0.693,0.278c0.263,0,0.525-0.103,0.721-0.308c0.383-0.398,0.37-1.031-0.028-1.414l-6.69-6.425v-2.592  l5.304,5.095c0.194,0.186,0.443,0.278,0.693,0.278c0.263,0,0.525-0.103,0.721-0.308c0.383-0.398,0.37-1.031-0.028-1.414  l-6.998-6.721c-0.388-0.371-0.998-0.371-1.386,0l-6.997,6.721c-0.398,0.383-0.411,1.016-0.028,1.414  c0.382,0.399,1.016,0.409,1.414,0.029l5.305-5.096v2.592l-6.69,6.426c-0.398,0.383-0.411,1.016-0.028,1.414  c0.382,0.399,1.016,0.41,1.414,0.029l5.305-5.096v2.593l-6.69,6.425c-0.398,0.383-0.411,1.016-0.028,1.414  c0.196,0.205,0.458,0.308,0.721,0.308c0.249,0,0.499-0.093,0.693-0.278l5.305-5.095v2.592l-6.69,6.425  c-0.398,0.383-0.411,1.016-0.028,1.414c0.382,0.399,1.016,0.41,1.414,0.029l5.305-5.095v9.504H62.371v-22.86l7.188,6.905  c0.194,0.186,0.443,0.278,0.693,0.278c0.263,0,0.525-0.103,0.721-0.308c0.383-0.398,0.37-1.031-0.028-1.414l-8.574-8.235v-2.52  l7.188,6.904c0.194,0.186,0.443,0.278,0.693,0.278c0.263,0,0.525-0.103,0.721-0.308c0.383-0.398,0.37-1.031-0.028-1.414  l-8.574-8.234v-2.664l7.188,6.905c0.194,0.186,0.443,0.278,0.693,0.278c0.263,0,0.525-0.103,0.721-0.308  c0.383-0.398,0.37-1.031-0.028-1.414l-8.574-8.235v-2.663l7.188,6.905c0.194,0.186,0.443,0.278,0.693,0.278  c0.263,0,0.525-0.103,0.721-0.308c0.383-0.398,0.37-1.031-0.028-1.414l-8.881-8.53c-0.044-0.042-0.098-0.062-0.147-0.094  c-0.056-0.037-0.105-0.082-0.168-0.108c-0.242-0.099-0.513-0.099-0.755,0c-0.063,0.026-0.113,0.071-0.168,0.108  c-0.049,0.032-0.103,0.052-0.147,0.094l-8.881,8.53c-0.398,0.383-0.411,1.016-0.028,1.414c0.382,0.399,1.016,0.409,1.414,0.029  l7.188-6.905v2.663l-8.574,8.235c-0.398,0.383-0.411,1.016-0.028,1.414c0.382,0.399,1.016,0.41,1.414,0.029l7.188-6.905v2.664  l-8.574,8.234c-0.398,0.383-0.411,1.016-0.028,1.414c0.382,0.399,1.016,0.41,1.414,0.029l7.188-6.904v2.52l-8.574,8.235  c-0.398,0.383-0.411,1.016-0.028,1.414c0.382,0.399,1.016,0.409,1.414,0.029l7.188-6.905v22.86H41.875v-9.504l5.305,5.094  c0.194,0.186,0.443,0.278,0.693,0.278c0.263,0,0.525-0.103,0.721-0.308c0.383-0.398,0.37-1.031-0.028-1.414l-6.69-6.425v-2.592  L47.18,42.6c0.194,0.186,0.443,0.278,0.693,0.278c0.263,0,0.525-0.103,0.721-0.308c0.383-0.398,0.37-1.031-0.028-1.414l-6.69-6.425  v-2.593l5.305,5.095c0.194,0.186,0.443,0.278,0.693,0.278c0.263,0,0.525-0.103,0.721-0.308c0.383-0.398,0.37-1.031-0.028-1.414  l-6.69-6.426v-2.592l5.305,5.095c0.194,0.186,0.443,0.278,0.693,0.278c0.263,0,0.525-0.103,0.721-0.308  c0.383-0.398,0.37-1.031-0.028-1.414l-6.998-6.721c-0.388-0.371-0.998-0.371-1.386,0l-6.998,6.721  c-0.398,0.383-0.411,1.016-0.028,1.414c0.382,0.399,1.016,0.409,1.414,0.029l5.305-5.095v2.592l-6.69,6.426  c-0.398,0.383-0.411,1.016-0.028,1.414c0.382,0.399,1.016,0.41,1.414,0.029l5.305-5.095v2.593l-6.69,6.425  c-0.398,0.383-0.411,1.016-0.028,1.414c0.382,0.399,1.015,0.41,1.414,0.029l5.305-5.094v2.592l-6.69,6.425  c-0.398,0.383-0.411,1.016-0.028,1.414c0.382,0.399,1.015,0.41,1.414,0.029l5.305-5.094v9.504H21.006V29.713l7.188,6.905  c0.398,0.381,1.031,0.371,1.414-0.029c0.383-0.398,0.37-1.031-0.028-1.414l-8.574-8.235v-2.52l7.188,6.904  c0.399,0.381,1.031,0.371,1.414-0.029c0.383-0.398,0.37-1.031-0.028-1.414l-8.574-8.234v-2.664l7.188,6.905  c0.398,0.381,1.031,0.371,1.414-0.029c0.383-0.398,0.37-1.031-0.028-1.414l-8.574-8.235v-2.663l7.188,6.905  c0.398,0.381,1.031,0.37,1.414-0.029c0.383-0.398,0.37-1.031-0.028-1.414l-8.881-8.53c-0.388-0.371-0.998-0.371-1.386,0l-8.881,8.53  c-0.398,0.383-0.411,1.016-0.028,1.414c0.196,0.205,0.458,0.308,0.721,0.308c0.25,0,0.499-0.093,0.693-0.278l7.188-6.905v2.663  l-8.574,8.235c-0.398,0.383-0.411,1.016-0.028,1.414c0.196,0.205,0.458,0.308,0.721,0.308c0.25,0,0.499-0.093,0.693-0.278  l7.188-6.905v2.664l-8.574,8.234c-0.398,0.383-0.411,1.016-0.028,1.414c0.196,0.205,0.458,0.308,0.721,0.308  c0.249,0,0.499-0.093,0.693-0.278l7.188-6.904v2.52L10.432,35.174z" />
      <path
        d="M89.125,75.583c-0.552,0-1,0.447-1,1c0,1.826-1.486,3.312-3.313,3.312s-3.313-1.486-3.313-3.312c0-0.553-0.448-1-1-1  s-1,0.447-1,1c0,1.826-1.486,3.312-3.313,3.312s-3.312-1.486-3.312-3.312c0-0.553-0.448-1-1-1s-1,0.447-1,1  c0,1.826-1.486,3.312-3.313,3.312s-3.313-1.486-3.313-3.312c0-0.553-0.448-1-1-1s-1,0.447-1,1c0,1.826-1.486,3.312-3.313,3.312  s-3.313-1.486-3.313-3.312c0-0.553-0.448-1-1-1s-1,0.447-1,1c0,1.826-1.486,3.312-3.313,3.312s-3.312-1.486-3.312-3.312  c0-0.553-0.448-1-1-1s-1,0.447-1,1c0,1.826-1.486,3.312-3.313,3.312s-3.313-1.486-3.313-3.312c0-0.553-0.448-1-1-1s-1,0.447-1,1  c0,1.826-1.486,3.312-3.313,3.312s-3.313-1.486-3.313-3.312c0-0.553-0.448-1-1-1s-1,0.447-1,1c0,1.826-1.486,3.312-3.313,3.312  s-3.313-1.486-3.313-3.312c0-0.553-0.448-1-1-1s-1,0.447-1,1c0,1.826-1.486,3.312-3.312,3.312s-3.313-1.486-3.313-3.312  c0-0.553-0.448-1-1-1s-1,0.447-1,1c0,2.93,2.383,5.312,5.313,5.312c1.779,0,3.348-0.887,4.312-2.233  c0.965,1.347,2.534,2.233,4.313,2.233s3.348-0.887,4.313-2.233c0.965,1.347,2.534,2.233,4.313,2.233s3.348-0.887,4.313-2.233  c0.965,1.347,2.534,2.233,4.313,2.233s3.348-0.887,4.313-2.233c0.965,1.347,2.533,2.233,4.312,2.233  c1.779,0,3.348-0.887,4.313-2.233c0.965,1.347,2.534,2.233,4.313,2.233s3.348-0.887,4.313-2.233  c0.965,1.347,2.534,2.233,4.313,2.233s3.348-0.887,4.313-2.233c0.965,1.347,2.533,2.233,4.312,2.233  c1.779,0,3.348-0.887,4.313-2.233c0.965,1.347,2.534,2.233,4.313,2.233c2.93,0,5.313-2.383,5.313-5.312  C90.125,76.03,89.677,75.583,89.125,75.583z" />
      <path
        d="M89.125,67.019c-0.552,0-1,0.447-1,1c0,1.826-1.486,3.312-3.313,3.312s-3.313-1.486-3.313-3.312c0-0.553-0.448-1-1-1  s-1,0.447-1,1c0,1.826-1.486,3.312-3.313,3.312s-3.312-1.486-3.312-3.312c0-0.553-0.448-1-1-1s-1,0.447-1,1  c0,1.826-1.486,3.312-3.313,3.312s-3.313-1.486-3.313-3.312c0-0.553-0.448-1-1-1s-1,0.447-1,1c0,1.826-1.486,3.312-3.313,3.312  s-3.313-1.486-3.313-3.312c0-0.553-0.448-1-1-1s-1,0.447-1,1c0,1.826-1.486,3.312-3.313,3.312s-3.312-1.486-3.312-3.312  c0-0.553-0.448-1-1-1s-1,0.447-1,1c0,1.826-1.486,3.312-3.313,3.312s-3.313-1.486-3.313-3.312c0-0.553-0.448-1-1-1s-1,0.447-1,1  c0,1.826-1.486,3.312-3.313,3.312s-3.313-1.486-3.313-3.312c0-0.553-0.448-1-1-1s-1,0.447-1,1c0,1.826-1.486,3.312-3.313,3.312  s-3.313-1.486-3.313-3.312c0-0.553-0.448-1-1-1s-1,0.447-1,1c0,1.826-1.486,3.312-3.312,3.312s-3.313-1.486-3.313-3.312  c0-0.553-0.448-1-1-1s-1,0.447-1,1c0,2.93,2.383,5.312,5.313,5.312c1.779,0,3.348-0.887,4.312-2.233  c0.965,1.347,2.534,2.233,4.313,2.233s3.348-0.887,4.313-2.233c0.965,1.347,2.534,2.233,4.313,2.233s3.348-0.887,4.313-2.233  c0.965,1.347,2.534,2.233,4.313,2.233s3.348-0.887,4.313-2.233c0.965,1.347,2.533,2.233,4.312,2.233  c1.779,0,3.348-0.887,4.313-2.233c0.965,1.347,2.534,2.233,4.313,2.233s3.348-0.887,4.313-2.233  c0.965,1.347,2.534,2.233,4.313,2.233s3.348-0.887,4.313-2.233c0.965,1.347,2.533,2.233,4.312,2.233  c1.779,0,3.348-0.887,4.313-2.233c0.965,1.347,2.534,2.233,4.313,2.233c2.93,0,5.313-2.383,5.313-5.312  C90.125,67.466,89.677,67.019,89.125,67.019z" />
      <path
        d="M89.125,58.915c-0.552,0-1,0.447-1,1c0,1.827-1.486,3.313-3.313,3.313s-3.313-1.486-3.313-3.313c0-0.553-0.448-1-1-1  s-1,0.447-1,1c0,1.827-1.486,3.313-3.313,3.313s-3.312-1.486-3.312-3.313c0-0.553-0.448-1-1-1s-1,0.447-1,1  c0,1.827-1.486,3.313-3.313,3.313s-3.313-1.486-3.313-3.313c0-0.553-0.448-1-1-1s-1,0.447-1,1c0,1.827-1.486,3.313-3.313,3.313  s-3.313-1.486-3.313-3.313c0-0.553-0.448-1-1-1s-1,0.447-1,1c0,1.827-1.486,3.313-3.313,3.313s-3.312-1.486-3.312-3.313  c0-0.553-0.448-1-1-1s-1,0.447-1,1c0,1.827-1.486,3.313-3.313,3.313s-3.313-1.486-3.313-3.313c0-0.553-0.448-1-1-1s-1,0.447-1,1  c0,1.827-1.486,3.313-3.313,3.313s-3.313-1.486-3.313-3.313c0-0.553-0.448-1-1-1s-1,0.447-1,1c0,1.827-1.486,3.313-3.313,3.313  s-3.313-1.486-3.313-3.313c0-0.553-0.448-1-1-1s-1,0.447-1,1c0,1.827-1.486,3.313-3.312,3.313s-3.313-1.486-3.313-3.313  c0-0.553-0.448-1-1-1s-1,0.447-1,1c0,2.93,2.383,5.313,5.313,5.313c1.779,0,3.348-0.887,4.312-2.234  c0.965,1.347,2.534,2.234,4.313,2.234s3.348-0.887,4.313-2.234c0.965,1.347,2.534,2.234,4.313,2.234s3.348-0.887,4.313-2.234  c0.965,1.347,2.534,2.234,4.313,2.234s3.348-0.887,4.313-2.234c0.965,1.347,2.533,2.234,4.312,2.234  c1.779,0,3.348-0.887,4.313-2.234c0.965,1.347,2.534,2.234,4.313,2.234s3.348-0.887,4.313-2.234  c0.965,1.347,2.534,2.234,4.313,2.234s3.348-0.887,4.313-2.234c0.965,1.347,2.533,2.234,4.312,2.234  c1.779,0,3.348-0.887,4.313-2.234c0.965,1.347,2.534,2.234,4.313,2.234c2.93,0,5.313-2.384,5.313-5.313  C90.125,59.362,89.677,58.915,89.125,58.915z" />
      <path
        d="M90.125,84.688c0-0.553-0.448-1-1-1s-1,0.447-1,1c0,1.826-1.486,3.312-3.313,3.312s-3.313-1.486-3.313-3.312  c0-0.553-0.448-1-1-1s-1,0.447-1,1c0,1.826-1.486,3.312-3.313,3.312s-3.312-1.486-3.312-3.312c0-0.553-0.448-1-1-1s-1,0.447-1,1  c0,1.826-1.486,3.312-3.313,3.312s-3.313-1.486-3.313-3.312c0-0.553-0.448-1-1-1s-1,0.447-1,1c0,1.826-1.486,3.312-3.313,3.312  s-3.313-1.486-3.313-3.312c0-0.553-0.448-1-1-1s-1,0.447-1,1c0,1.826-1.486,3.312-3.313,3.312s-3.312-1.486-3.312-3.312  c0-0.553-0.448-1-1-1s-1,0.447-1,1c0,1.826-1.486,3.312-3.313,3.312s-3.313-1.486-3.313-3.312c0-0.553-0.448-1-1-1s-1,0.447-1,1  c0,1.826-1.486,3.312-3.313,3.312s-3.313-1.486-3.313-3.312c0-0.553-0.448-1-1-1s-1,0.447-1,1c0,1.826-1.486,3.312-3.313,3.312  s-3.313-1.486-3.313-3.312c0-0.553-0.448-1-1-1s-1,0.447-1,1c0,1.826-1.486,3.312-3.312,3.312s-3.313-1.486-3.313-3.312  c0-0.553-0.448-1-1-1s-1,0.447-1,1c0,2.93,2.383,5.312,5.313,5.312c1.779,0,3.348-0.887,4.312-2.233  C21.083,89.113,22.652,90,24.431,90s3.348-0.887,4.313-2.233C29.709,89.113,31.278,90,33.057,90s3.348-0.887,4.313-2.233  C38.335,89.113,39.904,90,41.683,90s3.348-0.887,4.313-2.233C46.961,89.113,48.529,90,50.309,90c1.779,0,3.348-0.887,4.313-2.233  C55.586,89.113,57.155,90,58.935,90s3.348-0.887,4.313-2.233C64.212,89.113,65.781,90,67.561,90s3.348-0.887,4.313-2.233  C72.838,89.113,74.407,90,76.186,90c1.779,0,3.348-0.887,4.313-2.233C81.464,89.113,83.033,90,84.812,90  C87.742,90,90.125,87.617,90.125,84.688z" />
    </symbol>
    <symbol id="icon-backpack" viewBox="0 0 100 100">
      <path
        d="M25.349,39.849v21.503h-4.266c-1.75,0-3.173,1.424-3.173,3.174v10.082c0,4.19,3.309,7.612,7.448,7.814  C25.464,86.617,28.903,90,33.125,90h34.083c4.222,0,7.661-3.383,7.766-7.58c3.913-0.213,7.033-3.454,7.033-7.419V64.797  c0-1.9-1.546-3.445-3.446-3.445h-3.577V39.849c0-1.755-0.734-3.99-2.314-5.158c0.268-1.401,0.413-2.844,0.413-4.322v-3.216  c0-1.268-0.463-2.418-1.204-3.334h0.562c3.713,0,6.734-3.021,6.734-6.734v-0.28c0-3.713-3.021-6.734-6.734-6.734h-45.08  c-3.713,0-6.734,3.021-6.734,6.734v0.28c0,3.713,3.021,6.734,6.734,6.734h1.509c-1.084,1.144-1.754,2.684-1.754,4.38v2.169  c0,1.308,0.116,2.588,0.326,3.837C26.009,35.359,25.349,37.92,25.349,39.849z M19.91,74.607V64.525c0-0.647,0.526-1.174,1.173-1.174  h4.266v17.069C22.316,80.217,19.91,77.691,19.91,74.607z M67.208,88H33.125c-3.186,0-5.776-2.591-5.776-5.776v-1.333h45.636v1.333  C72.984,85.409,70.394,88,67.208,88z M78.562,63.352c0.798,0,1.446,0.648,1.446,1.445V75c0,2.859-2.218,5.205-5.023,5.419V63.352  H78.562z M71.084,27.153v3.216c0,5.345-2.026,10.214-5.328,13.923V23.819h1.994C69.588,23.819,71.084,25.314,71.084,27.153z   M63.756,21.819H36.318v-9.381c0-0.13-0.029-0.253-0.074-0.367H63.83c-0.045,0.114-0.074,0.237-0.074,0.367V21.819z M63.756,23.819  v22.448c-3.674,3.16-8.44,5.084-13.654,5.084c-5.277,0-10.092-1.973-13.783-5.201V23.819H63.756z M36.318,56.529l9.896,2.682  l-9.896,2.682V56.529z M35.317,72.182C35.317,72.182,35.317,72.182,35.317,72.182c0.001,0,0.002,0,0.003,0  c0.736,0.001,1.335,0.6,1.335,1.336c0,0.737-0.6,1.336-1.336,1.336s-1.336-0.6-1.336-1.336  C33.982,72.782,34.581,72.183,35.317,72.182z M36.318,69.865v-5.57l9.993,2.785L36.318,69.865z M39.496,63.104l10.541-2.857  l10.541,2.857l-10.541,2.938L39.496,63.104z M63.756,61.893l-9.896-2.682l9.896-2.682V61.893z M63.756,64.295v5.57l-9.993-2.785  L63.756,64.295z M64.755,72.182c0.001,0,0.001,0,0.002,0c0,0,0.001,0,0.001,0c0.736,0.001,1.335,0.6,1.335,1.336  c0,0.737-0.6,1.336-1.337,1.336c-0.736,0-1.336-0.6-1.336-1.336C63.42,72.782,64.019,72.182,64.755,72.182z M63.756,54.457  l-13.719,3.718l-13.719-3.718v-5.709c3.843,2.889,8.616,4.604,13.783,4.604c5.11,0,9.834-1.678,13.654-4.509V54.457z M77.177,16.805  v0.28c0,2.61-2.124,4.734-4.734,4.734H67.75h-1.994v-9.381c0-0.13-0.029-0.253-0.074-0.367h6.761  C75.053,12.70,77.177,14.194,77.177,16.805z M22.628,17.084v-0.28c0-2.61,2.124-4.734,4.734-4.734h7.03  c-0.045,0.114-0.074,0.237-0.074,0.367v9.381h-0.82h-6.136C24.752,21.819,22.628,19.695,22.628,17.084z M34.318,23.819v20.332  c-3.228-3.691-5.2-8.506-5.2-13.782v-2.169c0-2.416,1.965-4.38,4.38-4.38H34.318z M28.017,36.716  c1.151,3.998,3.358,7.55,6.302,10.336v23.3c-1.349,0.428-2.336,1.677-2.336,3.166c0,1.84,1.496,3.336,3.336,3.336  s3.336-1.497,3.336-3.336c0-0.767-0.271-1.466-0.708-2.031l12.091-3.369l12.091,3.369c-0.437,0.564-0.708,1.263-0.708,2.031  c0,1.84,1.496,3.336,3.336,3.336s3.337-1.497,3.337-3.336c0-1.489-0.987-2.739-2.337-3.166V47.174  c2.947-2.747,5.173-6.257,6.36-10.213c0.565,0.81,0.869,1.941,0.869,2.887v39.043H27.349V39.849  C27.349,38.731,27.618,37.556,28.017,36.716z" />
    </symbol>
    <symbol id="icon-boot" viewBox="0 0 100 100">
      <path
        d="M89.622,78.833h-0.273v-5.179c0-0.171-0.182-17.058-15.911-17.733c-4.253-0.183-8.46-0.998-12.505-2.423  c-8.836-3.11-12.81-18.447-12.81-28.345c0-0.108,0.005-0.719,0.01-1.27c1.479-0.303,2.596-1.615,2.596-3.182v-7.453  c0-1.791-1.458-3.248-3.249-3.248h-33.61c-1.791,0-3.249,1.457-3.249,3.248v7.453c0,1.602,1.169,2.928,2.697,3.192l0.938,13.708  c0,6.143-0.396,12.361-1.177,18.481c-0.597,4.669-1.3,11.509-1.262,17.571l-0.001,5.179h-0.194c-0.552,0-1,0.447-1,1V89  c0,0.553,0.448,1,1,1h28.586c0.552,0,1-0.447,1-1v-4.897C43.374,86.775,47.732,90,56.164,90h33.458c0.552,0,1-0.447,1-1v-9.167  C90.622,79.28,90.174,78.833,89.622,78.833z M12.622,20.701v-7.453c0-0.688,0.56-1.248,1.249-1.248h33.61  c0.688,0,1.249,0.56,1.249,1.248v7.453c0,0.688-0.56,1.248-1.249,1.248h-33.61C13.182,21.949,12.622,21.39,12.622,20.701z   M13.817,73.648c-0.037-5.959,0.657-12.703,1.246-17.312c0.792-6.205,1.193-12.508,1.191-18.804l-0.927-13.584h30.805  c-0.005,0.534-0.01,1.1-0.01,1.204c0,9.763,3.84,26.604,14.146,30.231c4.231,1.49,8.633,2.343,13.083,2.534  c13.804,0.593,13.996,15.118,13.997,15.735v5.179H13.816L13.817,73.648z M12.622,88v-7.167h0.194h26.393V88H12.622z M88.622,88  H56.164c-10.305,0-13.739-5.165-14.684-7.167h46.869h0.273V88z" />
      <path
        d="M42,43.418c-2.297,0-4.167,1.869-4.167,4.166c0,2.298,1.869,4.167,4.167,4.167s4.167-1.869,4.167-4.167  C46.167,45.287,44.297,43.418,42,43.418z M42,49.751c-1.195,0-2.167-0.972-2.167-2.167c0-1.194,0.972-2.166,2.167-2.166  s2.167,0.972,2.167,2.166C44.167,48.779,43.195,49.751,42,49.751z" />
      <path
        d="M43.148,36.443c0-2.298-1.869-4.167-4.167-4.167c-2.297,0-4.167,1.869-4.167,4.167s1.869,4.167,4.167,4.167  C41.279,40.61,43.148,38.741,43.148,36.443z M36.815,36.443c0-1.195,0.972-2.167,2.167-2.167s2.167,0.972,2.167,2.167  s-0.972,2.167-2.167,2.167S36.815,37.639,36.815,36.443z" />
      <path
        d="M49.729,53.213c-2.297,0-4.167,1.869-4.167,4.166c0,2.298,1.869,4.167,4.167,4.167s4.167-1.869,4.167-4.167  C53.896,55.082,52.026,53.213,49.729,53.213z M49.729,59.546c-1.195,0-2.167-0.972-2.167-2.167c0-1.194,0.972-2.166,2.167-2.166  s2.167,0.972,2.167,2.166C51.896,58.574,50.924,59.546,49.729,59.546z" />
    </symbol>
    <symbol id="icon-tent" viewBox="0 0 100 100">
      <path
        d="M13.109,89.262c0.001,0.003,0.004,0.006,0.005,0.009c0.025,0.087,0.059,0.172,0.108,0.252  c0.015,0.025,0.037,0.044,0.054,0.067c0.016,0.022,0.033,0.042,0.051,0.063c0.079,0.091,0.17,0.169,0.274,0.226  c0.004,0.002,0.006,0.006,0.009,0.008c0.044,0.023,0.09,0.035,0.136,0.051c0.027,0.01,0.053,0.023,0.081,0.03  C13.909,89.989,13.992,90,14.074,90h71.592c0.146,0,0.285-0.038,0.414-0.097c0.01-0.005,0.022-0.003,0.032-0.008  c0.006-0.003,0.009-0.008,0.014-0.011c0.103-0.054,0.193-0.127,0.272-0.213c0.019-0.021,0.035-0.042,0.052-0.064  c0.022-0.028,0.048-0.052,0.067-0.083c0.042-0.068,0.073-0.141,0.097-0.216c0.001-0.004,0.005-0.007,0.006-0.011l3.459-11.137  c0.164-0.527-0.131-1.087-0.658-1.251c-0.53-0.167-1.089,0.132-1.252,0.659l-2.727,8.781L50.997,18.359l3.826-3.68  c0.397-0.383,0.41-1.016,0.027-1.414c-0.382-0.397-1.015-0.411-1.414-0.027l-2.566,2.468V11c0-0.552-0.447-1-1-1s-1,0.448-1,1v4.998  L46,13.238c-0.398-0.382-1.03-0.371-1.414,0.027c-0.383,0.398-0.37,1.031,0.027,1.414l3.986,3.833  c0.006,0.033,0.008,0.066,0.017,0.098L14.358,86.228l-2.268-8.35c-0.146-0.533-0.7-0.849-1.227-0.703  c-0.533,0.145-0.848,0.694-0.703,1.227L13.109,89.262z M80.646,88H50.87V48.836C53.901,61.292,61.525,79.024,80.646,88z   M50.87,35.083v-12.55l32.725,64.592C51.521,73.794,50.873,35.478,50.87,35.083z M48.87,35.09v0.145  c-0.003,0.394-0.618,38.594-32.726,51.893L48.87,22.533V35.90z M48.87,48.94V88H19.124C38.234,79.043,45.842,61.359,48.87,48.94z" />
    </symbol>
    <symbol id="icon-path" viewBox="0 0 100 100">
      <path d="M10,50 Q30,20 50,50 T90,50" stroke="currentColor" stroke-width="8" fill="none"
        stroke-linecap="round" />
      <circle cx="10" cy="50" r="4" fill="currentColor" />
      <circle cx="50" cy="50" r="4" fill="currentColor" />
      <circle cx="90" cy="50" r="4" fill="currentColor" />
    </symbol>
    <symbol id="icon-camera" viewBox="0 0 100 100">
      <path
        d="M73.8242188,39.7807617c3.8886719,0,7.0527344-3.1640625,7.0527344-7.0527344s-3.1640625-7.0522461-7.0527344-7.0522461  s-7.0527344,3.1635742-7.0527344,7.0522461S69.9355469,39.7807617,73.8242188,39.7807617z M73.8242188,27.6757812  c2.7861328,0,5.0527344,2.2666016,5.0527344,5.0522461c0,2.7861328-2.2666016,5.0527344-5.0527344,5.0527344  s-5.0527344-2.2666016-5.0527344-5.0527344C68.7714844,29.9423828,71.0380859,27.6757812,73.8242188,27.6757812z" />
      <path
        d="M50,43.5708008c-8.5976562,0-15.5917969,6.9941406-15.5917969,15.5913086S41.4023438,74.7539062,50,74.7539062  s15.5917969-6.9946289,15.5917969-15.5917969S58.5976562,43.5708008,50,43.5708008z M50,72.7539062  c-7.4941406,0-13.5917969-6.097168-13.5917969-13.5917969c0-7.4941406,6.0976562-13.5913086,13.5917969-13.5913086  s13.5917969,6.097168,13.5917969,13.5913086C63.5917969,66.6567383,57.4941406,72.7539062,50,72.7539062z" />
      <path
        d="M50.1533203,50.7841797c-0.5527344,0-1,0.4477539-1,1s0.4472656,1,1,1c3.4326172,0,6.2246094,2.7924805,6.2246094,6.2246094  c0,0.5522461,0.4472656,1,1,1s1-0.4477539,1-1C58.3779297,54.4736328,54.6884766,50.7841797,50.1533203,50.7841797z" />
      <path
        d="M11,90h78c0.5527344,0,1-0.4477539,1-1V26.1132812c0-4.0234375-3.1134033-7.3273315-7.0566406-7.6444092v-3.5489502  C82.9433594,12.2070312,80.7363281,10,78.0234375,10H69.625c-2.7128906,0-4.9199219,2.2070312-4.9199219,4.9199219V18.4375  h-0.6005859c-2.0283203,0-3.9414062,0.7836914-5.3857422,2.2070312c-0.0009766,0-0.0009766,0-0.0009766,0l-6.5419922,6.4428711  c-0.7841797,0.7734375-1.8232422,1.1992188-2.9257812,1.1992188h-5.0605469v-7.109375  c0-2.7124023-2.2070312-4.9194336-4.9199219-4.9194336H19.8720703c-2.7128906,0-4.9199219,2.2070312-4.9199219,4.9194336v7.109375  H11c-0.5527344,0-1,0.4477539-1,1V89C10,89.5522461,10.4472656,90,11,90z M88,75H67.1882324  c3.8447266-4.1691895,6.1984863-9.7329102,6.1984863-15.8378906c0-4.1947021-1.1157227-8.1314697-3.0576172-11.5390625H88V75z   M50,80.5488281c-11.7929688,0-21.3867188-9.5942383-21.3867188-21.3867188S38.2070312,37.7758789,50,37.7758789  s21.3867188,9.59375,21.3867188,21.3862305S61.7929688,80.5488281,50,80.5488281z M66.7050781,14.9199219  C66.7050781,13.3100586,68.0146484,12,69.625,12h8.3984375c1.6103516,0,2.9199219,1.3100586,2.9199219,2.9199219V18.4375H66.7050781  V14.9199219z M30.5712891,18.2578125h8.6982422c1.6103516,0,2.9199219,1.3095703,2.9199219,2.9194336v7.109375H30.5712891  V18.2578125z M16.9521484,21.1772461c0-1.6098633,1.3095703-2.9194336,2.9199219-2.9194336h8.6992188v10.0288086H16.9521484  V21.1772461z M12,30.2866211h37.25c1.6308594,0,3.1689453-0.6303711,4.3300781-1.7744141l6.5410156-6.4428711  c1.0693359-1.0522461,2.4833984-1.6318359,3.9833984-1.6318359h18.2197266C85.4541016,20.4375,88,22.9838867,88,26.1132812  v19.5097656H69.0507812C64.8071289,39.6695557,57.8519287,35.7758789,50,35.7758789s-14.8071289,3.8936768-19.0507812,9.847168H12  V30.2866211z M12,47.6230469h17.6708984c-1.9418945,3.4075928-3.0576172,7.3443604-3.0576172,11.5390625  c0,6.1049805,2.3537598,11.6687012,6.1984863,15.8378906H12V47.6230469z M12,77h22.8996582  C38.9772949,80.4572754,44.2476807,82.5488281,50,82.5488281S61.0227051,80.4572754,65.1003418,77H88v11H12V77z" />
    </symbol>
    <symbol id="icon-car" viewBox="0 0 100 100">
      <path
        d="M28.554,55.732c-2.751,0-4.988,2.237-4.988,4.988c0,2.75,2.237,4.987,4.988,4.987c2.75,0,4.987-2.237,4.987-4.987  C33.541,57.97,31.304,55.732,28.554,55.732z M28.554,63.708c-1.647,0-2.988-1.34-2.988-2.987s1.341-2.988,2.988-2.988  s2.987,1.341,2.987,2.988S30.201,63.708,28.554,63.708z" />
      <path
        d="M71.876,55.732c-2.75,0-4.987,2.237-4.987,4.988c0,2.75,2.237,4.987,4.987,4.987s4.987-2.237,4.987-4.987  C76.863,57.97,74.626,55.732,71.876,55.732z M71.876,63.708c-1.647,0-2.987-1.34-2.987-2.987s1.34-2.988,2.987-2.988  s2.987,1.341,2.987,2.988S73.523,63.708,71.876,63.708z" />
      <path
        d="M75.013,91.163c2.703,0,4.902-2.316,4.902-5.163v-5.727h6.543c0.553,0,1-0.447,1-1v-3.249h1.667c0.553,0,1-0.447,1-1v-5.857  c0-0.553-0.447-1-1-1h-1.667V57.829c0-3.739-3.042-6.781-6.781-6.781h-1.352l-2.996-25.272C75.7,22.296,73.118,19.686,70,19.21  v-3.835h1.297c0.553,0,1-0.447,1-1s-0.447-1-1-1H70V11c0-0.553-0.447-1-1-1s-1,0.447-1,1v2.375H51.125V11c0-0.553-0.447-1-1-1  s-1,0.447-1,1v2.375H32.25V11c0-0.553-0.447-1-1-1s-1,0.447-1,1v2.375h-1.297c-0.553,0-1,0.447-1,1s0.447,1,1,1h1.297v3.862  c-3.038,0.547-5.535,3.133-6.158,6.599l-2.987,25.212h-1.353c-3.738,0-6.78,3.042-6.78,6.781v10.338h-1.847c-0.553,0-1,0.447-1,1  v5.857c0,0.553,0.447,1,1,1h1.847v3.249c0,0.553,0.447,1,1,1h6.542V86c0,2.847,2.199,5.163,4.903,5.163S30.32,88.847,30.32,86  v-5.727h39.789V86C70.109,88.847,72.309,91.163,75.013,91.163z M77.915,86c0,1.744-1.302,3.163-2.902,3.163S72.109,87.744,72.109,86  v-5.727h5.806V86z M74.352,26.07l2.959,24.978H51.125V21.125h17.854C71.573,21.125,73.837,23.23,74.352,26.07z M68,15.375v3.75  H51.125v-3.75H68z M49.125,15.375v3.75H32.25v-3.75H49.125z M26.069,26.131c0.522-2.9,2.786-5.006,5.382-5.006h17.674v29.923H23.119  L26.069,26.131z M14.972,57.829c0-2.637,2.145-4.781,4.78-4.781h60.925c2.637,0,4.781,2.145,4.781,4.781v10.338H14.972V57.829z   M12.125,70.167h76v3.857h-76V70.167z M14.972,76.024h70.486v2.249H14.972V76.024z M28.32,86c0,1.744-1.303,3.163-2.903,3.163  S22.514,87.744,22.514,86v-5.727h5.807V86z" />
    </symbol>
    <symbol id="icon-fishing" viewBox="0 0 100 100">
      <style type="text/css">
        .st0{fill:none;stroke:#000000;stroke-width:2;stroke-linecap:round;stroke-linejoin:round;stroke-miterlimit:10;}
        .st1{fill:none;stroke:#000000;stroke-width:2;stroke-linecap:round;stroke-linejoin:round;}
        .st2{fill:none;stroke:#000000;stroke-width:2;stroke-linecap:round;stroke-linejoin:round;stroke-dasharray:2.9177,3.8902;}
        .st3{fill:none;stroke:#000000;stroke-width:2;stroke-linecap:round;stroke-linejoin:round;stroke-dasharray:2.9655,3.954;}
        .st4{fill:none;stroke:#000000;stroke-width:2;stroke-linecap:round;stroke-linejoin:round;stroke-dasharray:2.7633,3.6844;}
      </style>
      <path
        d="M11.3,12.5c0.6,0,1,0.4,1,1c0,2.4,2,4.4,4.4,4.4s4.4-2,4.4-4.4c0-0.6,0.4-1,1-1s1,0.4,1,1c0,2.4,2,4.4,4.4,4.4  s4.4-2,4.4-4.4c0-0.6,0.4-1,1-1s1,0.4,1,1c0,2.4,2,4.4,4.4,4.4s4.4-2,4.4-4.4c0-0.6,0.4-1,1-1s1,0.4,1,1c0,2.4,2,4.4,4.4,4.4  s4.4-2,4.4-4.4c0-0.6,0.4-1,1-1s1,0.4,1,1c0,2.4,2,4.4,4.4,4.4s4.4-2,4.4-4.4c0-0.6,0.4-1,1-1s1,0.4,1,1c0,2.4,2,4.4,4.4,4.4  s4.4-2,4.4-4.4c0-0.6,0.4-1,1-1s1,0.4,1,1c0,2.4,2,4.4,4.4,4.4s4.4-2,4.4-4.4c0-0.6,0.4-1,1-1s1,0.4,1,1c0,3.5-2.9,6.4-6.4,6.4  c-2.3,0-4.3-1.2-5.4-3c-1.1,1.8-3.1,3-5.4,3c-2.3,0-4.3-1.2-5.4-3c-1.1,1.8-3.1,3-5.4,3s-4.3-1.2-5.4-3c-1.1,1.8-3.1,3-5.4,3  c-2.3,0-4.3-1.2-5.4-3c-1.1,1.8-3.1,3-5.4,3s-4.3-1.2-5.4-3c-1.1,1.8-3.1,3-5.4,3c-2.3,0-4.3-1.2-5.4-3c-1.1,1.8-3.1,3-5.4,3  c-3.5,0-6.4-2.9-6.4-6.4C10.3,13,10.7,12.5,11.3,12.5z" />
      <path
        d="M78.2,40.8c2.1,1.9,4.2,4,6.3,6.4c0.3,0.3,0.4,0.5,0.5,0.6c0.2,0.2,0.5,0.3,0.7,0.3c0.3,0,0.5-0.1,0.7-0.3  c0.4-0.4,0.4-1,0-1.4c-0.1-0.1-0.3-0.3-0.5-0.5c-2.1-2.3-4.2-4.5-6.3-6.4c2-1.9,4.1-4,6.1-6.3c0.2-0.3,0.4-0.4,0.5-0.5  c0.4-0.4,0.4-1,0-1.4c-0.4-0.4-1-0.4-1.4,0c-0.1,0.1-0.3,0.3-0.5,0.6c-2.1,2.3-4.1,4.4-6.2,6.3c-8.6-7.5-16.9-11.1-24.4-10.7  c-6.7,0.4-12.5,4.2-17.4,11.2c0,0,0,0-0.1,0c-0.5,0.3-0.6,0.9-0.3,1.4c4.9,7.2,10.9,11.1,17.6,11.5c0.4,0,0.9,0,1.3,0  C62.2,51.6,70.1,47.9,78.2,40.8z M76.7,39.4c-8.1,7-16,10.6-22.8,10.1c-5.9-0.4-11.2-3.7-15.6-10c4.5-6.3,9.8-9.8,15.8-10.1  C60.8,29,68.6,32.5,76.7,39.4z" />
      <circle cx="45.6" cy="39.8" r="1.2" />
      <path
        d="M52.5,46c-0.3,0-0.5-0.1-0.7-0.3c-0.4-0.4-0.4-1,0-1.4l2.1-2.1l-2.1-2.1c-0.4-0.4-0.4-1,0-1.4l2.1-2.1l-2.1-2.1  c-0.4-0.4-0.4-1,0-1.4s1-0.4,1.4,0L56,36c0.4,0.4,0.4,1,0,1.4l-2.1,2.1l2.1,2.1c0.4,0.4,0.4,1,0,1.4l-2.8,2.8  C53,45.9,52.8,46,52.5,46z" />
      <path
        d="M10.7,69c-0.5,0.3-0.6,0.9-0.3,1.4c4.9,7.2,10.9,11.1,17.6,11.5c0.4,0,0.9,0,1.3,0c7.2,0,15-3.7,23.2-10.8  c2.1,1.9,4.2,4,6.3,6.4c0.3,0.3,0.4,0.5,0.5,0.6c0.2,0.2,0.5,0.3,0.7,0.3c0.3,0,0.5-0.1,0.7-0.3c0.4-0.4,0.4-1,0-1.4  c-0.1-0.1-0.3-0.3-0.5-0.5c-2.1-2.3-4.2-4.5-6.3-6.4c2-1.9,4.1-4,6.1-6.3c0.2-0.3,0.4-0.4,0.5-0.5c0.4-0.4,0.4-1,0-1.4  c-0.4-0.4-1-0.4-1.4,0c-0.1,0.1-0.3,0.3-0.5,0.6c-2.1,2.3-4.1,4.4-6.2,6.3C44,60.9,35.7,57.3,28.2,57.8C21.5,58.2,15.7,62,10.7,69  C10.8,69,10.7,69,10.7,69z M12.6,69.9c4.5-6.3,9.8-9.8,15.8-10.1c6.8-0.4,14.6,3.1,22.7,10c-8.1,7-16,10.6-22.8,10.1  C22.3,79.5,17,76.1,12.6,69.9z" />
      <circle cx="19.9" cy="70.2" r="1.2" />
      <path
        d="M26.1,63.6c0.4-0.4,1-0.4,1.4,0l2.8,2.8c0.2,0.2,0.3,0.4,0.3,0.7s-0.1,0.5-0.3,0.7l-2.1,2.1l2.1,2.1  c0.2,0.2,0.3,0.4,0.3,0.7s-0.1,0.5-0.3,0.7l-2.8,2.8c-0.2,0.2-0.5,0.3-0.7,0.3s-0.5-0.1-0.7-0.3c-0.4-0.4-0.4-1,0-1.4l2.1-2.1  l-2.1-2.1c-0.2-0.2-0.3-0.4-0.3-0.7s0.1-0.5,0.3-0.7l2.1-2.1L26.1,65C25.7,64.6,25.7,63.9,26.1,63.6z" />
    </symbol>
    <symbol id="icon-info" viewBox="0 0 100 100">
      <path
        d="M90.0053711,89c0-0.5522461-0.4477539-1-1-1H57.402832V69.7197266h18.0292969c2.2055664,0,4-1.7944336,4-4V48.6962891  c0-2.2055664-1.7944336-4-4-4H57.402832v-9.6733398h18.0292969c2.2055664,0,4-1.7944336,4-4V14c0-2.2055664-1.7944336-4-4-4  H24.5678711c-2.2055664,0-4,1.7944336-4,4v17.0229492c0,2.2055664,1.7944336,4,4,4H42.597168v9.6733398H24.5678711  c-2.2055664,0-4,1.7944336-4,4v17.0234375c0,2.2055664,1.7944336,4,4,4H42.597168V88H11.0053711c-0.5522461,0-1,0.4477539-1,1  s0.4477539,1,1,1h78C89.5576172,90,90.0053711,89.5522461,90.0053711,89z M24.5678711,33.0229492c-1.1030273,0-2-0.8969727-2-2V14  c0-1.1030273,0.8969727-2,2-2h50.8642578c1.1030273,0,2,0.8969727,2,2v17.0229492c0,1.1030273-0.8969727,2-2,2H24.5678711z   M55.402832,35.0229492v9.6733398H44.597168v-9.6733398H55.402832z M24.5678711,67.7197266c-1.1030273,0-2-0.8969727-2-2V48.6962891  c0-1.1030273,0.8969727-2,2-2h50.8642578c1.1030273,0,2,0.8969727,2,2v17.0234375c0,1.1030273-0.8969727,2-2,2H24.5678711z   M55.402832,88H44.597168V69.7197266H55.402832V88z" />
      <path
        d="M58.1357422,21.5117188H44.2783203l3.440918-3.440918c0.390625-0.390625,0.390625-1.0234375,0-1.4140625  s-1.0234375-0.390625-1.4140625,0l-5.1479492,5.1479492c-0.390625,0.390625-0.390625,1.0234375,0,1.4140625l5.1479492,5.1479492  c0.1953125,0.1953125,0.4511719,0.2929688,0.7070312,0.2929688s0.5117188-0.0976562,0.7070312-0.2929688  c0.390625-0.390625,0.390625-1.0234375,0-1.4140625l-3.440918-3.440918h13.8574219c0.5522461,0,1-0.4477539,1-1  S58.6879883,21.5117188,58.1357422,21.5117188z" />
      <path
        d="M58.1357422,56.121582H44.2783203l3.440918-3.440918c0.390625-0.390625,0.390625-1.0234375,0-1.4140625  s-1.0234375-0.390625-1.4140625,0l-5.1479492,5.1479492c-0.390625,0.390625-0.390625,1.0234375,0,1.4140625l5.1479492,5.1479492  c0.1953125,0.1953125,0.4511719,0.2929688,0.7070312,0.2929688s0.5117188-0.0976562,0.7070312-0.2929688  c0.390625-0.390625,0.390625-1.0234375,0-1.4140625l-3.440918-3.440918h13.8574219c0.5522461,0,1-0.4477539,1-1  S58.6879883,56.121582,58.1357422,56.121582z" />
    </symbol>
    <symbol id="icon-lake" viewBox="0 0 100 100">
      <style type="text/css">
        .st0{fill:none;stroke:#000000;stroke-width:2;stroke-linecap:round;stroke-linejoin:round;stroke-miterlimit:10;}
        .st1{fill:none;stroke:#000000;stroke-width:2;stroke-linecap:round;stroke-linejoin:round;}
        .st2{fill:none;stroke:#000000;stroke-width:2;stroke-linecap:round;stroke-linejoin:round;stroke-dasharray:2.9177,3.8902;}
        .st3{fill:none;stroke:#000000;stroke-width:2;stroke-linecap:round;stroke-linejoin:round;stroke-dasharray:2.9655,3.954;}
        .st4{fill:none;stroke:#000000;stroke-width:2;stroke-linecap:round;stroke-linejoin:round;stroke-dasharray:2.7633,3.6844;}
      </style>
      <path
        d="M14.8,37.1v1.7l-4,4c-0.4,0.4-0.4,1,0,1.4c0.4,0.4,1,0.4,1.4,0l2.6-2.6v1.7l-4,4c-0.4,0.4-0.4,1,0,1.4c0.4,0.4,1,0.4,1.4,0  l2.6-2.6v7.6h-3.3c-0.6,0-1,0.4-1,1s0.4,1,1,1h76.1c0.6,0,1-0.4,1-1s-0.4-1-1-1h-1.6L70.2,24.3c-0.3-0.7-1.4-0.7-1.8,0l-7.2,13.4  L46,9.1c-0.3-0.7-1.4-0.7-1.8,0l-24,44.8h-3.4v-7.6l2.6,2.6c0.2,0.2,0.5,0.3,0.7,0.3c0.3,0,0.5-0.1,0.7-0.3c0.4-0.4,0.4-1,0-1.4  l-4-4v-1.7l2.6,2.6c0.2,0.2,0.5,0.3,0.7,0.3c0.3,0,0.5-0.1,0.7-0.3c0.4-0.4,0.4-1,0-1.4l-4-4v-1.7l2.6,2.6c0.2,0.2,0.5,0.3,0.7,0.3  c0.3,0,0.5-0.1,0.7-0.3c0.4-0.4,0.4-1,0-1.4L16.5,34c0,0,0,0,0,0c-0.2-0.2-0.4-0.3-0.7-0.3s-0.5,0.1-0.7,0.3l0,0l-4.3,4.3  c-0.4,0.4-0.4,1,0,1.4c0.4,0.4,1,0.4,1.4,0L14.8,37.1z M60.2,39.7l-7.6,14.2h-7.2v-7.6l2.6,2.6c0.2,0.2,0.5,0.3,0.7,0.3  c0.3,0,0.5-0.1,0.7-0.3c0.4-0.4,0.4-1,0-1.4l-4-4v-1.7l2.6,2.6c0.2,0.2,0.5,0.3,0.7,0.3c0.3,0,0.5-0.1,0.7-0.3c0.4-0.4,0.4-1,0-1.4  l-4-4v-1.7l2.6,2.6c0.2,0.2,0.5,0.3,0.7,0.3c0.3,0,0.5-0.1,0.7-0.3c0.4-0.4,0.4-1,0-1.4L45.1,34l0,0c-0.2-0.2-0.4-0.3-0.7-0.3  s-0.5,0.1-0.7,0.3c0,0,0,0,0,0l-4.3,4.3c-0.4,0.4-0.4,1,0,1.4c0.4,0.4,1,0.4,1.4,0l2.6-2.6v1.7l-4,4c-0.4,0.4-0.4,1,0,1.4  c0.4,0.4,1,0.4,1.4,0l2.6-2.6v1.7l-4,4c-0.4,0.4-0.4,1,0,1.4c0.4,0.4,1,0.4,1.4,0l2.6-2.6v7.6H22.5l22.6-42.2l14.9,27.8  C60,39.6,60.1,39.6,60.2,39.7z M83.8,53.9H54.8l14.5-27L83.8,53.9z" />
      <path
        d="M11.6,71.4c0.6,0,1,0.4,1,1c0,1.8,1.4,3.2,3.2,3.2s3.2-1.4,3.2-3.2c0-0.6,0.4-1,1-1s1,0.4,1,1c0,1.8,1.4,3.2,3.2,3.2  s3.2-1.4,3.2-3.2c0-0.6,0.4-1,1-1s1,0.4,1,1c0,1.8,1.4,3.2,3.2,3.2s3.2-1.4,3.2-3.2c0-0.6,0.4-1,1-1s1,0.4,1,1  c0,1.8,1.4,3.2,3.2,3.2s3.2-1.4,3.2-3.2c0-0.6,0.4-1,1-1s1,0.4,1,1c0,1.8,1.4,3.2,3.2,3.2c1.8,0,3.2-1.4,3.2-3.2c0-0.6,0.4-1,1-1  s1,0.4,1,1c0,1.8,1.4,3.2,3.2,3.2s3.2-1.4,3.2-3.2c0-0.6,0.4-1,1-1s1,0.4,1,1c0,1.8,1.4,3.2,3.2,3.2s3.2-1.4,3.2-3.2  c0-0.6,0.4-1,1-1s1,0.4,1,1c0,1.8,1.4,3.2,3.2,3.2s3.2-1.4,3.2-3.2c0-0.6,0.4-1,1-1s1,0.4,1,1c0,1.8,1.4,3.2,3.2,3.2  s3.2-1.4,3.2-3.2c0-0.6,0.4-1,1-1s1,0.4,1,1c0,2.9-2.3,5.2-5.2,5.2c-1.7,0-3.3-0.9-4.2-2.2c-1,1.3-2.5,2.2-4.2,2.2s-3.3-0.9-4.2-2.2  c-1,1.3-2.5,2.2-4.2,2.2s-3.3-0.9-4.2-2.2c-1,1.3-2.5,2.2-4.2,2.2s-3.3-0.9-4.2-2.2c-1,1.3-2.5,2.2-4.2,2.2c-1.7,0-3.3-0.9-4.2-2.2  c-1,1.3-2.5,2.2-4.2,2.2c-1.7,0-3.3-0.9-4.2-2.2c-1,1.3-2.5,2.2-4.2,2.2s-3.3-0.9-4.2-2.2c-1,1.3-2.5,2.2-4.2,2.2S21,76.7,20,75.4  c-1,1.3-2.5,2.2-4.2,2.2c-2.9,0-5.2-2.3-5.2-5.2C10.6,71.8,11,71.4,11.6,71.4z" />
      <path
        d="M11.6,63c0.6,0,1,0.4,1,1c0,1.8,1.4,3.2,3.2,3.2S19,65.8,19,64c0-0.6,0.4-1,1-1s1,0.4,1,1c0,1.8,1.4,3.2,3.2,3.2  s3.2-1.4,3.2-3.2c0-0.6,0.4-1,1-1s1,0.4,1,1c0,1.8,1.4,3.2,3.2,3.2s3.2-1.4,3.2-3.2c0-0.6,0.4-1,1-1s1,0.4,1,1  c0,1.8,1.4,3.2,3.2,3.2s3.2-1.4,3.2-3.2c0-0.6,0.4-1,1-1s1,0.4,1,1c0,1.8,1.4,3.2,3.2,3.2c1.8,0,3.2-1.4,3.2-3.2c0-0.6,0.4-1,1-1  s1,0.4,1,1c0,1.8,1.4,3.2,3.2,3.2s3.2-1.4,3.2-3.2c0-0.6,0.4-1,1-1s1,0.4,1,1c0,1.8,1.4,3.2,3.2,3.2s3.2-1.4,3.2-3.2  c0-0.6,0.4-1,1-1s1,0.4,1,1c0,1.8,1.4,3.2,3.2,3.2s3.2-1.4,3.2-3.2c0-0.6,0.4-1,1-1s1,0.4,1,1c0,1.8,1.4,3.2,3.2,3.2  s3.2-1.4,3.2-3.2c0-0.6,0.4-1,1-1s1,0.4,1,1c0,2.9-2.3,5.2-5.2,5.2c-1.7,0-3.3-0.9-4.2-2.2c-1,1.3-2.5,2.2-4.2,2.2s-3.3-0.9-4.2-2.2  c-1,1.3-2.5,2.2-4.2,2.2s-3.3-0.9-4.2-2.2c-1,1.3-2.5,2.2-4.2,2.2s-3.3-0.9-4.2-2.2c-1,1.3-2.5,2.2-4.2,2.2c-1.7,0-3.3-0.9-4.2-2.2  c-1,1.3-2.5,2.2-4.2,2.2c-1.7,0-3.3-0.9-4.2-2.2c-1,1.3-2.5,2.2-4.2,2.2s-3.3-0.9-4.2-2.2c-1,1.3-2.5,2.2-4.2,2.2S21,68.4,20,67  c-1,1.3-2.5,2.2-4.2,2.2c-2.9,0-5.2-2.3-5.2-5.2C10.6,63.4,11,63,11.6,63z" />
      <path
        d="M11.6,79.3c0.6,0,1,0.4,1,1c0,1.8,1.4,3.2,3.2,3.2s3.2-1.4,3.2-3.2c0-0.6,0.4-1,1-1s1,0.4,1,1c0,1.8,1.4,3.2,3.2,3.2  s3.2-1.4,3.2-3.2c0-0.6,0.4-1,1-1s1,0.4,1,1c0,1.8,1.4,3.2,3.2,3.2s3.2-1.4,3.2-3.2c0-0.6,0.4-1,1-1s1,0.4,1,1  c0,1.8,1.4,3.2,3.2,3.2s3.2-1.4,3.2-3.2c0-0.6,0.4-1,1-1s1,0.4,1,1c0,1.8,1.4,3.2,3.2,3.2c1.8,0,3.2-1.4,3.2-3.2c0-0.6,0.4-1,1-1  s1,0.4,1,1c0,1.8,1.4,3.2,3.2,3.2s3.2-1.4,3.2-3.2c0-0.6,0.4-1,1-1s1,0.4,1,1c0,1.8,1.4,3.2,3.2,3.2s3.2-1.4,3.2-3.2  c0-0.6,0.4-1,1-1s1,0.4,1,1c0,1.8,1.4,3.2,3.2,3.2s3.2-1.4,3.2-3.2c0-0.6,0.4-1,1-1s1,0.4,1,1c0,1.8,1.4,3.2,3.2,3.2  s3.2-1.4,3.2-3.2c0-0.6,0.4-1,1-1s1,0.4,1,1c0,2.9-2.3,5.2-5.2,5.2c-1.7,0-3.3-0.9-4.2-2.2c-1,1.3-2.5,2.2-4.2,2.2s-3.3-0.9-4.2-2.2  c-1,1.3-2.5,2.2-4.2,2.2s-3.3-0.9-4.2-2.2c-1,1.3-2.5,2.2-4.2,2.2s-3.3-0.9-4.2-2.2c-1,1.3-2.5,2.2-4.2,2.2c-1.7,0-3.3-0.9-4.2-2.2  c-1,1.3-2.5,2.2-4.2,2.2c-1.7,0-3.3-0.9-4.2-2.2c-1,1.3-2.5,2.2-4.2,2.2s-3.3-0.9-4.2-2.2c-1,1.3-2.5,2.2-4.2,2.2S21,84.7,20,83.4  c-1,1.3-2.5,2.2-4.2,2.2c-2.9,0-5.2-2.3-5.2-5.2C10.6,79.8,11,79.3,11.6,79.3z" />
    </symbol>
    <symbol id="icon-mountain" viewBox="0 0 100 100">
      <path
        d="M87.208,18.729c-0.638-2.4-2.83-4.131-5.373-4.131c-1.419,0-2.747,0.53-3.758,1.463c-1.182-1.495-3.002-2.406-4.953-2.406  c-3.275,0-5.977,2.507-6.285,5.703c-1.865,0.77-3.111,2.588-3.111,4.658c0,2.782,2.263,5.045,5.045,5.045  c1.1,0,2.148-0.357,3.005-0.995c1.158,2.141,3.411,3.533,5.933,3.533c2.469,0,4.696-1.336,5.876-3.429  c0.715,0.371,1.513,0.567,2.334,0.567c2.805,0,5.086-2.282,5.086-5.086C91.008,21.301,89.42,19.302,87.208,18.729z M85.922,26.738  c-0.772,0-1.511-0.287-2.079-0.809c-0.25-0.229-0.597-0.316-0.927-0.231c-0.328,0.085-0.591,0.33-0.698,0.651  c-0.649,1.944-2.46,3.25-4.507,3.25c-2.177,0-4.07-1.476-4.604-3.59c-0.097-0.384-0.411-0.674-0.8-0.741  c-0.057-0.01-0.113-0.015-0.169-0.015c-0.331,0-0.645,0.165-0.833,0.446c-0.567,0.853-1.514,1.361-2.532,1.361  c-1.679,0-3.045-1.366-3.045-3.045c0-1.407,0.956-2.622,2.324-2.955c0.457-0.111,0.769-0.621,0.758-1.091  c0-2.379,1.936-4.314,4.314-4.314c1.682,0,3.221,0.992,3.922,2.527c0.153,0.335,0.479,0.56,0.847,0.583  c0.377,0.025,0.719-0.159,0.914-0.472c0.656-1.062,1.789-1.695,3.029-1.695c1.791,0,3.309,1.339,3.532,3.115  c0.058,0.46,0.425,0.821,0.886,0.87c1.57,0.168,2.755,1.487,2.755,3.068C89.008,25.353,87.624,26.738,85.922,26.738z" />
      <path
        d="M38.605,11.128c-1.878,0-3.628,0.746-4.913,2.048c-1.468-2.026-3.842-3.272-6.395-3.272c-4.159,0-7.577,3.23-7.877,7.313  c-2.402,0.912-4.021,3.211-4.021,5.836c0,3.447,2.804,6.251,6.251,6.251c1.482,0,2.891-0.524,4-1.452  c1.396,2.862,4.317,4.746,7.602,4.746c3.196,0,6.069-1.786,7.508-4.558c0.95,0.55,2.032,0.844,3.149,0.844  c3.476,0,6.304-2.828,6.304-6.304c0-2.974-2.05-5.493-4.878-6.142C44.601,13.364,41.83,11.128,38.605,11.128z M48.213,22.581  c0,2.374-1.931,4.304-4.304,4.304c-1.077,0-2.106-0.401-2.9-1.128c-0.25-0.229-0.599-0.317-0.926-0.231  c-0.328,0.085-0.591,0.33-0.698,0.652c-0.883,2.645-3.347,4.422-6.132,4.422c-2.963,0-5.539-2.008-6.264-4.884  c-0.097-0.383-0.411-0.674-0.8-0.741c-0.057-0.01-0.113-0.015-0.169-0.015c-0.331,0-0.645,0.164-0.832,0.445  c-0.793,1.19-2.114,1.9-3.536,1.9c-2.344,0-4.251-1.907-4.251-4.251c0-1.964,1.334-3.661,3.244-4.125  c0.455-0.111,0.772-0.522,0.764-0.991l-0.008-0.135c0-3.252,2.646-5.898,5.898-5.898c2.299,0,4.404,1.355,5.362,3.454  c0.153,0.335,0.479,0.559,0.847,0.583c0.371,0.023,0.719-0.158,0.913-0.472c0.907-1.465,2.472-2.34,4.185-2.34  c2.474,0,4.572,1.851,4.88,4.304c0.058,0.46,0.425,0.821,0.886,0.87C46.562,18.536,48.213,20.375,48.213,22.581z" />
      <path
        d="M89.655,88.096h-1.194L76.738,48.934c-0.031-0.104-0.079-0.202-0.141-0.29L56.77,20.562  c-0.204-0.288-0.541-0.453-0.897-0.42c-0.352,0.028-0.664,0.241-0.818,0.558L45.95,39.37l-3.327-6.626  c-0.338-0.676-1.448-0.675-1.787,0l-4.916,9.791c-0.495-0.352-1.05-0.627-1.659-0.784c-0.638-2.4-2.83-4.131-5.374-4.131  c-1.419,0-2.747,0.53-3.758,1.463c-1.182-1.495-3.002-2.406-4.953-2.406c-3.275,0-5.977,2.507-6.285,5.703  c-1.865,0.77-3.111,2.588-3.111,4.658c0,2.782,2.264,5.045,5.046,5.045c1.099,0,2.147-0.357,3.005-0.995  c1.158,2.141,3.411,3.533,5.933,3.533c2.469,0,4.696-1.336,5.876-3.429c0.163,0.084,0.331,0.157,0.501,0.223L20.508,64.335  c-0.083,0.1-0.145,0.215-0.183,0.338l-7.281,23.422h-1.389c-0.552,0-1,0.448-1,1s0.448,1,1,1h78c0.552,0,1-0.448,1-1  S90.208,88.096,89.655,88.096z M86.374,88.096h-3.059c-0.013-0.033-0.013-0.068-0.031-0.1L66.501,56.919  c-0.145-0.268-0.404-0.456-0.704-0.509c-0.299-0.05-0.608,0.033-0.837,0.233l-7.17,6.309l-8.36-16.65  c0.333,0.023,0.675-0.091,0.879-0.368l2.101-2.853l2.599,7.348c0.134,0.38,0.483,0.642,0.886,0.665  c0.019,0.001,0.038,0.001,0.058,0.001c0.38,0,0.73-0.216,0.898-0.561l3.833-7.85l3.402,4.859c0.201,0.287,0.53,0.451,0.886,0.424  c0.349-0.023,0.661-0.227,0.822-0.538l3.173-6.127l5.903,8.36L86.374,88.096z M56.111,23.097l11.562,16.375  c-0.009,0.015-0.023,0.023-0.031,0.039l-2.865,5.533l-3.427-4.896c-0.203-0.29-0.545-0.446-0.897-0.424  c-0.353,0.028-0.665,0.24-0.82,0.558L56.1,47.514l-2.432-6.878c-0.124-0.349-0.43-0.601-0.796-0.656  c-0.368-0.054-0.733,0.098-0.952,0.396l-2.415,3.279l-2.057-2.792L56.111,23.097z M41.73,35.421l8.694,17.315l-2.083,4.156  l-2.531-4.37c-0.203-0.35-0.596-0.545-0.996-0.49c-0.4,0.053-0.73,0.341-0.835,0.731l-2.251,8.366l-2.26-8.367  c-0.112-0.414-0.474-0.71-0.901-0.737c-0.42-0.023-0.825,0.221-0.988,0.617l-2.298,5.568l-2.295-5.568  c-0.028-0.068-0.078-0.119-0.118-0.177l0.623-0.757c2.56-0.263,4.57-2.406,4.57-5.034c0-0.932-0.257-1.803-0.696-2.557L41.73,35.421  z M29.968,48.719c-0.328,0.085-0.591,0.331-0.698,0.652c-0.648,1.944-2.459,3.25-4.506,3.25c-2.177,0-4.07-1.476-4.604-3.589  c-0.097-0.383-0.411-0.674-0.8-0.741c-0.057-0.01-0.113-0.015-0.169-0.015c-0.331,0-0.645,0.164-0.832,0.445  c-0.568,0.853-1.515,1.361-2.533,1.361c-1.68,0-3.046-1.366-3.046-3.045c0-1.407,0.956-2.622,2.324-2.955  c0.453-0.11,0.769-0.518,0.764-0.984l-0.006-0.107c0-2.379,1.936-4.314,4.314-4.314c1.682,0,3.221,0.992,3.922,2.527  c0.153,0.335,0.479,0.559,0.847,0.583c0.367,0.025,0.719-0.159,0.913-0.472c0.657-1.061,1.79-1.695,3.029-1.695  c1.791,0,3.309,1.339,3.532,3.116c0.058,0.46,0.425,0.821,0.886,0.87c1.57,0.167,2.754,1.486,2.754,3.067  c0,1.702-1.385,3.086-3.086,3.086c-0.772,0-1.511-0.288-2.08-0.809C30.645,48.721,30.295,48.634,29.968,48.719z M22.177,65.455  l9.28-11.276l2.899,7.034c0.154,0.375,0.519,0.619,0.924,0.619c0,0,0,0,0,0c0.405,0,0.77-0.244,0.924-0.619l2.101-5.089l2.46,9.107  c0.118,0.436,0.514,0.739,0.965,0.739h0c0.452,0,0.848-0.304,0.965-0.74l2.59-9.625l2.254,3.892  c0.184,0.318,0.513,0.513,0.896,0.499c0.367-0.011,0.699-0.223,0.864-0.551l2.245-4.479l5.042,10.041  c0.139,0.277,0.398,0.474,0.703,0.533c0.304,0.061,0.619-0.027,0.852-0.23l7.199-6.334l15.727,29.121H15.139L22.177,65.455z" />
    </symbol>
  </defs>
</svg>